<svg width="40" height="40" viewBox="0 0 40 40" fill="none" xmlns="http://www.w3.org/2000/svg">
    <path d="M19.998 40C10.1114 39.8697 2.12834 31.8867 1.99803 22C2.12834 12.1134 10.1114 4.13034 19.998 4.00003C29.8847 4.13034 37.8677 12.1134 37.998 22C37.8677 31.8867 29.8847 39.8697 19.998 40ZM19.998 8.00003C12.3084 8.10127 6.09927 14.3104 5.99803 22C6.09927 29.6897 12.3084 35.8988 19.998 36C27.6877 35.8988 33.8968 29.6897 33.998 22C33.8968 14.3104 27.6877 8.10127 19.998 8.00003ZM29.998 24H17.998V12H21.998V20H29.998V24ZM36.582 9.41603L30.564 3.41603L33.382 0.582031L39.402 6.58203L36.582 9.41403V9.41603ZM3.41203 9.41603L0.582031 6.58203L6.56403 0.582031L9.39403 3.41603L3.41603 9.41603H3.41203Z" fill="#F3EFF5" />
</svg>
