<svg width="34" height="2066" viewBox="0 0 34 2066" fill="none" xmlns="http://www.w3.org/2000/svg">
    <path d="M9.64797 38.9653V40.7383H0.992065L0.992065 38.9653L3.33616 37.4827L3.33616 3.86944L1.10369 2.3868V0.738281L9.3131 0.738281C11.3426 0.738281 12.1037 1.24632 12.6111 3.41324C14.671 14.673 15.909 22.1898 17.2282 33.3355H17.3399L22.302 3.26809C22.7485 1.19448 23.4792 0.759017 25.6 0.810857C28.7762 0.810857 30.5114 0.810857 33.7181 0.810857V2.45938L31.5363 3.94201L31.5363 37.3687L33.9921 39.0794V40.7383H23.3168V39.0794L25.7725 37.3687L25.7725 10.5257L25.945 4.81293H25.7218L19.5317 40.168H14.8943C14.6653 40.2015 14.432 40.1858 14.2093 40.122C13.9866 40.0582 13.7793 39.9476 13.6008 39.7974C13.4222 39.6471 13.2763 39.4605 13.1723 39.2494C13.0683 39.0383 13.0085 38.8074 12.9967 38.5714C11.16 27.1665 9.37398 16.4874 7.30387 5.18618H7.01974L7.30387 12.5993L7.30387 37.4827L9.64797 38.9653Z" fill="url(#paint0_linear)" />
    <path d="M9.64797 743.227V745H0.992065L0.992065 743.227L3.33616 741.744L3.33616 708.131L1.10369 706.649V705H9.3131C11.3426 705 12.1037 705.508 12.6111 707.675C14.671 718.935 15.909 726.452 17.2282 737.597H17.3399L22.302 707.53C22.7485 705.456 23.4792 705.021 25.6 705.073C28.7762 705.073 30.5114 705.073 33.7181 705.073V706.721L31.5363 708.204L31.5363 741.63L33.9921 743.341V745H23.3168V743.341L25.7725 741.63L25.7725 714.787L25.945 709.075H25.7218L19.5317 744.43H14.8943C14.6653 744.463 14.432 744.448 14.2093 744.384C13.9866 744.32 13.7793 744.209 13.6008 744.059C13.4222 743.909 13.2763 743.722 13.1723 743.511C13.0683 743.3 13.0085 743.069 12.9967 742.833C11.16 731.428 9.37398 720.749 7.30387 709.448H7.01974L7.30387 716.861L7.30387 741.744L9.64797 743.227Z" fill="url(#paint1_linear)" />
    <path d="M9.64797 1447.23V1449H0.992065L0.992065 1447.23L3.33616 1445.74L3.33616 1412.13L1.10369 1410.65V1409H9.3131C11.3426 1409 12.1037 1409.51 12.6111 1411.67C14.671 1422.93 15.909 1430.45 17.2282 1441.6H17.3399L22.302 1411.53C22.7485 1409.46 23.4792 1409.02 25.6 1409.07C28.7762 1409.07 30.5114 1409.07 33.7181 1409.07V1410.72L31.5363 1412.2L31.5363 1445.63L33.9921 1447.34V1449H23.3168V1447.34L25.7725 1445.63L25.7725 1418.79L25.945 1413.07H25.7218L19.5317 1448.43H14.8943C14.6653 1448.46 14.432 1448.45 14.2093 1448.38C13.9866 1448.32 13.7793 1448.21 13.6008 1448.06C13.4222 1447.91 13.2763 1447.72 13.1723 1447.51C13.0683 1447.3 13.0085 1447.07 12.9967 1446.83C11.16 1435.43 9.37398 1424.75 7.30387 1413.45H7.01974L7.30387 1420.86L7.30387 1445.74L9.64797 1447.23Z" fill="url(#paint2_linear)" />
    <path d="M9.64797 215.227V217H0.992065L0.992065 215.227L3.33616 213.744L3.33616 180.131L1.10369 178.649V177H9.3131C11.3426 177 12.1037 177.508 12.6111 179.675C14.671 190.935 15.909 198.452 17.2282 209.597H17.3399L22.302 179.53C22.7485 177.456 23.4792 177.021 25.6 177.073C28.7762 177.073 30.5114 177.073 33.7181 177.073V178.721L31.5363 180.204L31.5363 213.63L33.9921 215.341V217H23.3168V215.341L25.7725 213.63L25.7725 186.787L25.945 181.075H25.7218L19.5317 216.43H14.8943C14.6653 216.463 14.432 216.448 14.2093 216.384C13.9866 216.32 13.7793 216.209 13.6008 216.059C13.4222 215.909 13.2763 215.722 13.1723 215.511C13.0683 215.3 13.0085 215.069 12.9967 214.833C11.16 203.428 9.37398 192.749 7.30387 181.448H7.01974L7.30387 188.861L7.30387 213.744L9.64797 215.227Z" fill="url(#paint3_linear)" />
    <path d="M9.64797 919.489V921.262H0.992065L0.992065 919.489L3.33616 918.006L3.33616 884.393L1.10369 882.91V881.262H9.3131C11.3426 881.262 12.1037 881.77 12.6111 883.937C14.671 895.196 15.909 902.713 17.2282 913.859H17.3399L22.302 883.792C22.7485 881.718 23.4792 881.282 25.6 881.334C28.7762 881.334 30.5114 881.334 33.7181 881.334V882.983L31.5363 884.465L31.5363 917.892L33.9921 919.603V921.262H23.3168V919.603L25.7725 917.892L25.7725 891.049L25.945 885.336H25.7218L19.5317 920.691H14.8943C14.6653 920.725 14.432 920.709 14.2093 920.645C13.9866 920.582 13.7793 920.471 13.6008 920.321C13.4222 920.171 13.2763 919.984 13.1723 919.773C13.0683 919.562 13.0085 919.331 12.9967 919.095C11.16 907.69 9.37398 897.011 7.30387 885.71H7.01974L7.30387 893.123L7.30387 918.006L9.64797 919.489Z" fill="url(#paint4_linear)" />
    <path d="M9.64797 1623.49V1625.26H0.992065L0.992065 1623.49L3.33616 1622.01L3.33616 1588.39L1.10369 1586.91V1585.26H9.3131C11.3426 1585.26 12.1037 1585.77 12.6111 1587.94C14.671 1599.2 15.909 1606.71 17.2282 1617.86H17.3399L22.302 1587.79C22.7485 1585.72 23.4792 1585.28 25.6 1585.33C28.7762 1585.33 30.5114 1585.33 33.7181 1585.33V1586.98L31.5363 1588.47L31.5363 1621.89L33.9921 1623.6V1625.26H23.3168V1623.6L25.7725 1621.89L25.7725 1595.05L25.945 1589.34H25.7218L19.5317 1624.69H14.8943C14.6653 1624.72 14.432 1624.71 14.2093 1624.65C13.9866 1624.58 13.7793 1624.47 13.6008 1624.32C13.4222 1624.17 13.2763 1623.98 13.1723 1623.77C13.0683 1623.56 13.0085 1623.33 12.9967 1623.09C11.16 1611.69 9.37398 1601.01 7.30387 1589.71H7.01974L7.30387 1597.12L7.30387 1622.01L9.64797 1623.49Z" fill="url(#paint5_linear)" />
    <path d="M9.64797 391.227V393H0.992065L0.992065 391.227L3.33616 389.744L3.33616 356.131L1.10369 354.649V353H9.3131C11.3426 353 12.1037 353.508 12.6111 355.675C14.671 366.935 15.909 374.452 17.2282 385.597H17.3399L22.302 355.53C22.7485 353.456 23.4792 353.021 25.6 353.073C28.7762 353.073 30.5114 353.073 33.7181 353.073V354.721L31.5363 356.204L31.5363 389.63L33.9921 391.341V393H23.3168V391.341L25.7725 389.63L25.7725 362.787L25.945 357.075H25.7218L19.5317 392.43H14.8943C14.6653 392.463 14.432 392.448 14.2093 392.384C13.9866 392.32 13.7793 392.209 13.6008 392.059C13.4222 391.909 13.2763 391.722 13.1723 391.511C13.0683 391.3 13.0085 391.069 12.9967 390.833C11.16 379.428 9.37398 368.749 7.30387 357.448H7.01974L7.30387 364.861L7.30387 389.744L9.64797 391.227Z" fill="url(#paint6_linear)" />
    <path d="M9.64797 1095.49V1097.26H0.992065L0.992065 1095.49L3.33616 1094.01L3.33616 1060.39L1.10369 1058.91V1057.26H9.3131C11.3426 1057.26 12.1037 1057.77 12.6111 1059.94C14.671 1071.2 15.909 1078.71 17.2282 1089.86H17.3399L22.302 1059.79C22.7485 1057.72 23.4792 1057.28 25.6 1057.33C28.7762 1057.33 30.5114 1057.33 33.7181 1057.33V1058.98L31.5363 1060.47L31.5363 1093.89L33.9921 1095.6V1097.26H23.3168V1095.6L25.7725 1093.89L25.7725 1067.05L25.945 1061.34H25.7218L19.5317 1096.69H14.8943C14.6653 1096.72 14.432 1096.71 14.2093 1096.65C13.9866 1096.58 13.7793 1096.47 13.6008 1096.32C13.4222 1096.17 13.2763 1095.98 13.1723 1095.77C13.0683 1095.56 13.0085 1095.33 12.9967 1095.09C11.16 1083.69 9.37398 1073.01 7.30387 1061.71H7.01974L7.30387 1069.12L7.30387 1094.01L9.64797 1095.49Z" fill="url(#paint7_linear)" />
    <path d="M9.64797 1799.49V1801.26H0.992065L0.992065 1799.49L3.33616 1798.01L3.33616 1764.39L1.10369 1762.91V1761.26H9.3131C11.3426 1761.26 12.1037 1761.77 12.6111 1763.94C14.671 1775.2 15.909 1782.71 17.2282 1793.86H17.3399L22.302 1763.79C22.7485 1761.72 23.4792 1761.28 25.6 1761.33C28.7762 1761.33 30.5114 1761.33 33.7181 1761.33V1762.98L31.5363 1764.47L31.5363 1797.89L33.9921 1799.6V1801.26H23.3168V1799.6L25.7725 1797.89L25.7725 1771.05L25.945 1765.34H25.7218L19.5317 1800.69H14.8943C14.6653 1800.72 14.432 1800.71 14.2093 1800.65C13.9866 1800.58 13.7793 1800.47 13.6008 1800.32C13.4222 1800.17 13.2763 1799.98 13.1723 1799.77C13.0683 1799.56 13.0085 1799.33 12.9967 1799.09C11.16 1787.69 9.37398 1777.01 7.30387 1765.71H7.01974L7.30387 1773.12L7.30387 1798.01L9.64797 1799.49Z" fill="url(#paint8_linear)" />
    <path d="M9.64797 567.227V569H0.992065L0.992065 567.227L3.33616 565.744L3.33616 532.131L1.10369 530.649V529H9.3131C11.3426 529 12.1037 529.508 12.6111 531.675C14.671 542.935 15.909 550.452 17.2282 561.597H17.3399L22.302 531.53C22.7485 529.456 23.4792 529.021 25.6 529.073C28.7762 529.073 30.5114 529.073 33.7181 529.073V530.721L31.5363 532.204L31.5363 565.63L33.9921 567.341V569H23.3168V567.341L25.7725 565.63L25.7725 538.787L25.945 533.075H25.7218L19.5317 568.43H14.8943C14.6653 568.463 14.432 568.448 14.2093 568.384C13.9866 568.32 13.7793 568.209 13.6008 568.059C13.4222 567.909 13.2763 567.722 13.1723 567.511C13.0683 567.3 13.0085 567.069 12.9967 566.833C11.16 555.428 9.37398 544.749 7.30387 533.448H7.01974L7.30387 540.861L7.30387 565.744L9.64797 567.227Z" fill="url(#paint9_linear)" />
    <path d="M9.64797 1271.49V1273.26H0.992065L0.992065 1271.49L3.33616 1270.01L3.33616 1236.39L1.10369 1234.91V1233.26H9.3131C11.3426 1233.26 12.1037 1233.77 12.6111 1235.94C14.671 1247.2 15.909 1254.71 17.2282 1265.86H17.3399L22.302 1235.79C22.7485 1233.72 23.4792 1233.28 25.6 1233.33C28.7762 1233.33 30.5114 1233.33 33.7181 1233.33V1234.98L31.5363 1236.47L31.5363 1269.89L33.9921 1271.6V1273.26H23.3168V1271.6L25.7725 1269.89L25.7725 1243.05L25.945 1237.34H25.7218L19.5317 1272.69H14.8943C14.6653 1272.72 14.432 1272.71 14.2093 1272.65C13.9866 1272.58 13.7793 1272.47 13.6008 1272.32C13.4222 1272.17 13.2763 1271.98 13.1723 1271.77C13.0683 1271.56 13.0085 1271.33 12.9967 1271.09C11.16 1259.69 9.37398 1249.01 7.30387 1237.71H7.01974L7.30387 1245.12L7.30387 1270.01L9.64797 1271.49Z" fill="url(#paint10_linear)" />
    <path d="M9.64797 1975.49V1977.26H0.992065L0.992065 1975.49L3.33616 1974.01L3.33616 1940.39L1.10369 1938.91V1937.26H9.3131C11.3426 1937.26 12.1037 1937.77 12.6111 1939.94C14.671 1951.2 15.909 1958.71 17.2282 1969.86H17.3399L22.302 1939.79C22.7485 1937.72 23.4792 1937.28 25.6 1937.33C28.7762 1937.33 30.5114 1937.33 33.7181 1937.33V1938.98L31.5363 1940.47L31.5363 1973.89L33.9921 1975.6V1977.26H23.3168V1975.6L25.7725 1973.89L25.7725 1947.05L25.945 1941.34H25.7218L19.5317 1976.69H14.8943C14.6653 1976.72 14.432 1976.71 14.2093 1976.65C13.9866 1976.58 13.7793 1976.47 13.6008 1976.32C13.4222 1976.17 13.2763 1975.98 13.1723 1975.77C13.0683 1975.56 13.0085 1975.33 12.9967 1975.09C11.16 1963.69 9.37398 1953.01 7.30387 1941.71H7.01974L7.30387 1949.12L7.30387 1974.01L9.64797 1975.49Z" fill="url(#paint11_linear)" />
    <path d="M25.3362 90.5112L25.3362 88.7383H33.9921V90.5112L31.648 91.9939L31.648 125.607L33.8804 127.09V128.738H25.671C23.6415 128.738 22.8804 128.23 22.3731 126.063C20.3131 114.804 19.0751 107.287 17.7559 96.1411H17.6443L12.6821 126.208C12.2356 128.282 11.505 128.718 9.38413 128.666C6.20793 128.666 4.47269 128.666 1.26605 128.666V127.017L3.44778 125.535L3.44778 92.1079L0.992065 90.3972V88.7383H11.6673V90.3972L9.21162 92.1079L9.21162 118.951L9.03911 124.664H9.26236L15.4524 89.3085H20.0899C20.3188 89.2751 20.5521 89.2908 20.7748 89.3546C20.9976 89.4184 21.2048 89.529 21.3834 89.6792C21.5619 89.8294 21.7078 90.0161 21.8119 90.2272C21.9159 90.4383 21.9757 90.6692 21.9875 90.9052C23.8242 102.31 25.6101 112.989 27.6803 124.29H27.9644L27.6803 116.877L27.6803 91.9939L25.3362 90.5112Z" fill="url(#paint12_linear)" />
    <path d="M25.3362 794.773L25.3362 793H33.9921V794.773L31.648 796.256L31.648 829.869L33.8804 831.351V833H25.671C23.6415 833 22.8804 832.492 22.3731 830.325C20.3131 819.065 19.0751 811.548 17.7559 800.403H17.6443L12.6821 830.47C12.2356 832.544 11.505 832.979 9.38413 832.927C6.20793 832.927 4.47269 832.927 1.26605 832.927V831.279L3.44778 829.796L3.44778 796.37L0.992065 794.659V793H11.6673V794.659L9.21162 796.37L9.21162 823.213L9.03911 828.925H9.26236L15.4524 793.57H20.0899C20.3188 793.537 20.5521 793.552 20.7748 793.616C20.9976 793.68 21.2048 793.791 21.3834 793.941C21.5619 794.091 21.7078 794.278 21.8119 794.489C21.9159 794.7 21.9757 794.931 21.9875 795.167C23.8242 806.572 25.6101 817.251 27.6803 828.552H27.9644L27.6803 821.139L27.6803 796.256L25.3362 794.773Z" fill="url(#paint13_linear)" />
    <path d="M25.3362 1498.77L25.3362 1497H33.9921V1498.77L31.648 1500.26L31.648 1533.87L33.8804 1535.35V1537H25.671C23.6415 1537 22.8804 1536.49 22.3731 1534.33C20.3131 1523.07 19.0751 1515.55 17.7559 1504.4H17.6443L12.6821 1534.47C12.2356 1536.54 11.505 1536.98 9.38413 1536.93C6.20793 1536.93 4.47269 1536.93 1.26605 1536.93V1535.28L3.44778 1533.8L3.44778 1500.37L0.992065 1498.66V1497H11.6673V1498.66L9.21162 1500.37L9.21162 1527.21L9.03911 1532.93H9.26236L15.4524 1497.57H20.0899C20.3188 1497.54 20.5521 1497.55 20.7748 1497.62C20.9976 1497.68 21.2048 1497.79 21.3834 1497.94C21.5619 1498.09 21.7078 1498.28 21.8119 1498.49C21.9159 1498.7 21.9757 1498.93 21.9875 1499.17C23.8242 1510.57 25.6101 1521.25 27.6803 1532.55H27.9644L27.6803 1525.14L27.6803 1500.26L25.3362 1498.77Z" fill="url(#paint14_linear)" />
    <path d="M25.3362 266.773L25.3362 265H33.9921V266.773L31.648 268.256L31.648 301.869L33.8804 303.351V305H25.671C23.6415 305 22.8804 304.492 22.3731 302.325C20.3131 291.065 19.0751 283.548 17.7559 272.403H17.6443L12.6821 302.47C12.2356 304.544 11.505 304.979 9.38413 304.927C6.20793 304.927 4.47269 304.927 1.26605 304.927V303.279L3.44778 301.796L3.44778 268.37L0.992065 266.659V265H11.6673V266.659L9.21162 268.37L9.21162 295.213L9.03911 300.925H9.26236L15.4524 265.57H20.0899C20.3188 265.537 20.5521 265.552 20.7748 265.616C20.9976 265.68 21.2048 265.791 21.3834 265.941C21.5619 266.091 21.7078 266.278 21.8119 266.489C21.9159 266.7 21.9757 266.931 21.9875 267.167C23.8242 278.572 25.6101 289.251 27.6803 300.552H27.9644L27.6803 293.139L27.6803 268.256L25.3362 266.773Z" fill="url(#paint15_linear)" />
    <path d="M25.3362 971.035L25.3362 969.262H33.9921V971.035L31.648 972.517L31.648 1006.13L33.8804 1007.61V1009.26H25.671C23.6415 1009.26 22.8804 1008.75 22.3731 1006.59C20.3131 995.327 19.0751 987.81 17.7559 976.665H17.6443L12.6821 1006.73C12.2356 1008.81 11.505 1009.24 9.38413 1009.19C6.20793 1009.19 4.47269 1009.19 1.26605 1009.19V1007.54L3.44778 1006.06L3.44778 972.631L0.992065 970.921V969.262H11.6673V970.921L9.21162 972.631L9.21162 999.474L9.03911 1005.19H9.26236L15.4524 969.832H20.0899C20.3188 969.799 20.5521 969.814 20.7748 969.878C20.9976 969.942 21.2048 970.052 21.3834 970.203C21.5619 970.353 21.7078 970.54 21.8119 970.751C21.9159 970.962 21.9757 971.193 21.9875 971.429C23.8242 982.834 25.6101 993.513 27.6803 1004.81H27.9644L27.6803 997.401L27.6803 972.517L25.3362 971.035Z" fill="url(#paint16_linear)" />
    <path d="M25.3362 1675.03L25.3362 1673.26H33.9921V1675.03L31.648 1676.52L31.648 1710.13L33.8804 1711.61V1713.26H25.671C23.6415 1713.26 22.8804 1712.75 22.3731 1710.59C20.3131 1699.33 19.0751 1691.81 17.7559 1680.66H17.6443L12.6821 1710.73C12.2356 1712.81 11.505 1713.24 9.38413 1713.19C6.20793 1713.19 4.47269 1713.19 1.26605 1713.19V1711.54L3.44778 1710.06L3.44778 1676.63L0.992065 1674.92V1673.26H11.6673V1674.92L9.21162 1676.63L9.21162 1703.47L9.03911 1709.19H9.26236L15.4524 1673.83H20.0899C20.3188 1673.8 20.5521 1673.81 20.7748 1673.88C20.9976 1673.94 21.2048 1674.05 21.3834 1674.2C21.5619 1674.35 21.7078 1674.54 21.8119 1674.75C21.9159 1674.96 21.9757 1675.19 21.9875 1675.43C23.8242 1686.83 25.6101 1697.51 27.6803 1708.81H27.9644L27.6803 1701.4L27.6803 1676.52L25.3362 1675.03Z" fill="url(#paint17_linear)" />
    <path d="M25.3362 442.773L25.3362 441H33.9921V442.773L31.648 444.256L31.648 477.869L33.8804 479.351V481H25.671C23.6415 481 22.8804 480.492 22.3731 478.325C20.3131 467.065 19.0751 459.548 17.7559 448.403H17.6443L12.6821 478.47C12.2356 480.544 11.505 480.979 9.38413 480.927C6.20793 480.927 4.47269 480.927 1.26605 480.927V479.279L3.44778 477.796L3.44778 444.37L0.992065 442.659V441H11.6673V442.659L9.21162 444.37L9.21162 471.213L9.03911 476.925H9.26236L15.4524 441.57H20.0899C20.3188 441.537 20.5521 441.552 20.7748 441.616C20.9976 441.68 21.2048 441.791 21.3834 441.941C21.5619 442.091 21.7078 442.278 21.8119 442.489C21.9159 442.7 21.9757 442.931 21.9875 443.167C23.8242 454.572 25.6101 465.251 27.6803 476.552H27.9644L27.6803 469.139L27.6803 444.256L25.3362 442.773Z" fill="url(#paint18_linear)" />
    <path d="M25.3362 1147.03L25.3362 1145.26H33.9921V1147.03L31.648 1148.52L31.648 1182.13L33.8804 1183.61V1185.26H25.671C23.6415 1185.26 22.8804 1184.75 22.3731 1182.59C20.3131 1171.33 19.0751 1163.81 17.7559 1152.66H17.6443L12.6821 1182.73C12.2356 1184.81 11.505 1185.24 9.38413 1185.19C6.20793 1185.19 4.47269 1185.19 1.26605 1185.19V1183.54L3.44778 1182.06L3.44778 1148.63L0.992065 1146.92V1145.26H11.6673V1146.92L9.21162 1148.63L9.21162 1175.47L9.03911 1181.19H9.26236L15.4524 1145.83H20.0899C20.3188 1145.8 20.5521 1145.81 20.7748 1145.88C20.9976 1145.94 21.2048 1146.05 21.3834 1146.2C21.5619 1146.35 21.7078 1146.54 21.8119 1146.75C21.9159 1146.96 21.9757 1147.19 21.9875 1147.43C23.8242 1158.83 25.6101 1169.51 27.6803 1180.81H27.9644L27.6803 1173.4L27.6803 1148.52L25.3362 1147.03Z" fill="url(#paint19_linear)" />
    <path d="M25.3362 1851.03L25.3362 1849.26H33.9921V1851.03L31.648 1852.52L31.648 1886.13L33.8804 1887.61V1889.26H25.671C23.6415 1889.26 22.8804 1888.75 22.3731 1886.59C20.3131 1875.33 19.0751 1867.81 17.7559 1856.66H17.6443L12.6821 1886.73C12.2356 1888.81 11.505 1889.24 9.38413 1889.19C6.20793 1889.19 4.47269 1889.19 1.26605 1889.19V1887.54L3.44778 1886.06L3.44778 1852.63L0.992065 1850.92V1849.26H11.6673V1850.92L9.21162 1852.63L9.21162 1879.47L9.03911 1885.19H9.26236L15.4524 1849.83H20.0899C20.3188 1849.8 20.5521 1849.81 20.7748 1849.88C20.9976 1849.94 21.2048 1850.05 21.3834 1850.2C21.5619 1850.35 21.7078 1850.54 21.8119 1850.75C21.9159 1850.96 21.9757 1851.19 21.9875 1851.43C23.8242 1862.83 25.6101 1873.51 27.6803 1884.81H27.9644L27.6803 1877.4L27.6803 1852.52L25.3362 1851.03Z" fill="url(#paint20_linear)" />
    <path d="M25.3362 618.773L25.3362 617H33.9921V618.773L31.648 620.256L31.648 653.869L33.8804 655.351V657H25.671C23.6415 657 22.8804 656.492 22.3731 654.325C20.3131 643.065 19.0751 635.548 17.7559 624.403H17.6443L12.6821 654.47C12.2356 656.544 11.505 656.979 9.38413 656.927C6.20793 656.927 4.47269 656.927 1.26605 656.927V655.279L3.44778 653.796L3.44778 620.37L0.992065 618.659V617H11.6673V618.659L9.21162 620.37L9.21162 647.213L9.03911 652.925H9.26236L15.4524 617.57H20.0899C20.3188 617.537 20.5521 617.552 20.7748 617.616C20.9976 617.68 21.2048 617.791 21.3834 617.941C21.5619 618.091 21.7078 618.278 21.8119 618.489C21.9159 618.7 21.9757 618.931 21.9875 619.167C23.8242 630.572 25.6101 641.251 27.6803 652.552H27.9644L27.6803 645.139L27.6803 620.256L25.3362 618.773Z" fill="url(#paint21_linear)" />
    <path d="M25.3362 1323.03L25.3362 1321.26H33.9921V1323.03L31.648 1324.52L31.648 1358.13L33.8804 1359.61V1361.26H25.671C23.6415 1361.26 22.8804 1360.75 22.3731 1358.59C20.3131 1347.33 19.0751 1339.81 17.7559 1328.66H17.6443L12.6821 1358.73C12.2356 1360.81 11.505 1361.24 9.38413 1361.19C6.20793 1361.19 4.47269 1361.19 1.26605 1361.19V1359.54L3.44778 1358.06L3.44778 1324.63L0.992065 1322.92V1321.26H11.6673V1322.92L9.21162 1324.63L9.21162 1351.47L9.03911 1357.19H9.26236L15.4524 1321.83H20.0899C20.3188 1321.8 20.5521 1321.81 20.7748 1321.88C20.9976 1321.94 21.2048 1322.05 21.3834 1322.2C21.5619 1322.35 21.7078 1322.54 21.8119 1322.75C21.9159 1322.96 21.9757 1323.19 21.9875 1323.43C23.8242 1334.83 25.6101 1345.51 27.6803 1356.81H27.9644L27.6803 1349.4L27.6803 1324.52L25.3362 1323.03Z" fill="url(#paint22_linear)" />
    <path d="M25.3362 2027.03L25.3362 2025.26H33.9921V2027.03L31.648 2028.52L31.648 2062.13L33.8804 2063.61V2065.26H25.671C23.6415 2065.26 22.8804 2064.75 22.3731 2062.59C20.3131 2051.33 19.0751 2043.81 17.7559 2032.66H17.6443L12.6821 2062.73C12.2356 2064.81 11.505 2065.24 9.38413 2065.19C6.20793 2065.19 4.47269 2065.19 1.26605 2065.19V2063.54L3.44778 2062.06L3.44778 2028.63L0.992065 2026.92V2025.26H11.6673V2026.92L9.21162 2028.63L9.21162 2055.47L9.03911 2061.19H9.26236L15.4524 2025.83H20.0899C20.3188 2025.8 20.5521 2025.81 20.7748 2025.88C20.9976 2025.94 21.2048 2026.05 21.3834 2026.2C21.5619 2026.35 21.7078 2026.54 21.8119 2026.75C21.9159 2026.96 21.9757 2027.19 21.9875 2027.43C23.8242 2038.83 25.6101 2049.51 27.6803 2060.81H27.9644L27.6803 2053.4L27.6803 2028.52L25.3362 2027.03Z" fill="url(#paint23_linear)" />
    <defs>
        <linearGradient id="paint0_linear" x1="17.4921" y1="0.738281" x2="17.4921" y2="40.7383" gradientUnits="userSpaceOnUse">
            <stop stop-color="#251351" />
            <stop offset="1" stop-color="#251351" stop-opacity="0.5" />
        </linearGradient>
        <linearGradient id="paint1_linear" x1="17.4921" y1="705" x2="17.4921" y2="745" gradientUnits="userSpaceOnUse">
            <stop stop-color="#251351" />
            <stop offset="1" stop-color="#251351" stop-opacity="0.5" />
        </linearGradient>
        <linearGradient id="paint2_linear" x1="17.4921" y1="1409" x2="17.4921" y2="1449" gradientUnits="userSpaceOnUse">
            <stop stop-color="#251351" />
            <stop offset="1" stop-color="#251351" stop-opacity="0.5" />
        </linearGradient>
        <linearGradient id="paint3_linear" x1="17.4921" y1="177" x2="17.4921" y2="217" gradientUnits="userSpaceOnUse">
            <stop stop-color="#251351" />
            <stop offset="1" stop-color="#251351" stop-opacity="0.5" />
        </linearGradient>
        <linearGradient id="paint4_linear" x1="17.4921" y1="881.262" x2="17.4921" y2="921.262" gradientUnits="userSpaceOnUse">
            <stop stop-color="#251351" />
            <stop offset="1" stop-color="#251351" stop-opacity="0.5" />
        </linearGradient>
        <linearGradient id="paint5_linear" x1="17.4921" y1="1585.26" x2="17.4921" y2="1625.26" gradientUnits="userSpaceOnUse">
            <stop stop-color="#251351" />
            <stop offset="1" stop-color="#251351" stop-opacity="0.5" />
        </linearGradient>
        <linearGradient id="paint6_linear" x1="17.4921" y1="353" x2="17.4921" y2="393" gradientUnits="userSpaceOnUse">
            <stop stop-color="#251351" />
            <stop offset="1" stop-color="#251351" stop-opacity="0.5" />
        </linearGradient>
        <linearGradient id="paint7_linear" x1="17.4921" y1="1057.26" x2="17.4921" y2="1097.26" gradientUnits="userSpaceOnUse">
            <stop stop-color="#251351" />
            <stop offset="1" stop-color="#251351" stop-opacity="0.5" />
        </linearGradient>
        <linearGradient id="paint8_linear" x1="17.4921" y1="1761.26" x2="17.4921" y2="1801.26" gradientUnits="userSpaceOnUse">
            <stop stop-color="#251351" />
            <stop offset="1" stop-color="#251351" stop-opacity="0.5" />
        </linearGradient>
        <linearGradient id="paint9_linear" x1="17.4921" y1="529" x2="17.4921" y2="569" gradientUnits="userSpaceOnUse">
            <stop stop-color="#251351" />
            <stop offset="1" stop-color="#251351" stop-opacity="0.5" />
        </linearGradient>
        <linearGradient id="paint10_linear" x1="17.4921" y1="1233.26" x2="17.4921" y2="1273.26" gradientUnits="userSpaceOnUse">
            <stop stop-color="#251351" />
            <stop offset="1" stop-color="#251351" stop-opacity="0.5" />
        </linearGradient>
        <linearGradient id="paint11_linear" x1="17.4921" y1="1937.26" x2="17.4921" y2="1977.26" gradientUnits="userSpaceOnUse">
            <stop stop-color="#251351" />
            <stop offset="1" stop-color="#251351" stop-opacity="0.5" />
        </linearGradient>
        <linearGradient id="paint12_linear" x1="17.4921" y1="128.738" x2="17.4921" y2="88.7383" gradientUnits="userSpaceOnUse">
            <stop stop-color="#251351" />
            <stop offset="1" stop-color="#251351" stop-opacity="0.5" />
        </linearGradient>
        <linearGradient id="paint13_linear" x1="17.4921" y1="833" x2="17.4921" y2="793" gradientUnits="userSpaceOnUse">
            <stop stop-color="#251351" />
            <stop offset="1" stop-color="#251351" stop-opacity="0.5" />
        </linearGradient>
        <linearGradient id="paint14_linear" x1="17.4921" y1="1537" x2="17.4921" y2="1497" gradientUnits="userSpaceOnUse">
            <stop stop-color="#251351" />
            <stop offset="1" stop-color="#251351" stop-opacity="0.5" />
        </linearGradient>
        <linearGradient id="paint15_linear" x1="17.4921" y1="305" x2="17.4921" y2="265" gradientUnits="userSpaceOnUse">
            <stop stop-color="#251351" />
            <stop offset="1" stop-color="#251351" stop-opacity="0.5" />
        </linearGradient>
        <linearGradient id="paint16_linear" x1="17.4921" y1="1009.26" x2="17.4921" y2="969.262" gradientUnits="userSpaceOnUse">
            <stop stop-color="#251351" />
            <stop offset="1" stop-color="#251351" stop-opacity="0.5" />
        </linearGradient>
        <linearGradient id="paint17_linear" x1="17.4921" y1="1713.26" x2="17.4921" y2="1673.26" gradientUnits="userSpaceOnUse">
            <stop stop-color="#251351" />
            <stop offset="1" stop-color="#251351" stop-opacity="0.5" />
        </linearGradient>
        <linearGradient id="paint18_linear" x1="17.4921" y1="481" x2="17.4921" y2="441" gradientUnits="userSpaceOnUse">
            <stop stop-color="#251351" />
            <stop offset="1" stop-color="#251351" stop-opacity="0.5" />
        </linearGradient>
        <linearGradient id="paint19_linear" x1="17.4921" y1="1185.26" x2="17.4921" y2="1145.26" gradientUnits="userSpaceOnUse">
            <stop stop-color="#251351" />
            <stop offset="1" stop-color="#251351" stop-opacity="0.5" />
        </linearGradient>
        <linearGradient id="paint20_linear" x1="17.4921" y1="1889.26" x2="17.4921" y2="1849.26" gradientUnits="userSpaceOnUse">
            <stop stop-color="#251351" />
            <stop offset="1" stop-color="#251351" stop-opacity="0.5" />
        </linearGradient>
        <linearGradient id="paint21_linear" x1="17.4921" y1="657" x2="17.4921" y2="617" gradientUnits="userSpaceOnUse">
            <stop stop-color="#251351" />
            <stop offset="1" stop-color="#251351" stop-opacity="0.5" />
        </linearGradient>
        <linearGradient id="paint22_linear" x1="17.4921" y1="1361.26" x2="17.4921" y2="1321.26" gradientUnits="userSpaceOnUse">
            <stop stop-color="#251351" />
            <stop offset="1" stop-color="#251351" stop-opacity="0.5" />
        </linearGradient>
        <linearGradient id="paint23_linear" x1="17.4921" y1="2065.26" x2="17.4921" y2="2025.26" gradientUnits="userSpaceOnUse">
            <stop stop-color="#251351" />
            <stop offset="1" stop-color="#251351" stop-opacity="0.5" />
        </linearGradient>
    </defs>
</svg>
