<svg width="34" height="2066" viewBox="0 0 34 2066" fill="none" xmlns="http://www.w3.org/2000/svg">
    <path d="M25.3362 2.51122L25.3362 0.738281H33.9921V2.51122L31.648 3.99385L31.648 37.6071L33.8804 39.0898V40.7383H25.671C23.6415 40.7383 22.8804 40.2302 22.3731 38.0633C20.3131 26.8036 19.0751 19.2868 17.7559 8.14108H17.6443L12.6821 38.2085C12.2356 40.2821 11.505 40.7175 9.38413 40.6657C6.20793 40.6657 4.47269 40.6657 1.26605 40.6657V39.0172L3.44778 37.5345L3.44778 4.1079L0.992065 2.39717V0.738281H11.6673V2.39717L9.21162 4.1079L9.21162 30.9508L9.03911 36.6636H9.26236L15.4524 1.30853H20.0899C20.3188 1.27507 20.5521 1.29076 20.7748 1.35458C20.9976 1.41841 21.2048 1.52897 21.3834 1.67921C21.5619 1.82945 21.7078 2.01607 21.8119 2.22716C21.9159 2.43825 21.9757 2.66918 21.9875 2.90521C23.8242 14.3101 25.6101 24.9892 27.6803 36.2904H27.9644L27.6803 28.8772L27.6803 3.99385L25.3362 2.51122Z" fill="url(#paint0_linear)" />
    <path d="M25.3362 706.773L25.3362 705H33.9921V706.773L31.648 708.256L31.648 741.869L33.8804 743.351V745H25.671C23.6415 745 22.8804 744.492 22.3731 742.325C20.3131 731.065 19.0751 723.548 17.7559 712.403H17.6443L12.6821 742.47C12.2356 744.544 11.505 744.979 9.38413 744.927C6.20793 744.927 4.47269 744.927 1.26605 744.927V743.279L3.44778 741.796L3.44778 708.37L0.992065 706.659V705H11.6673V706.659L9.21162 708.37L9.21162 735.213L9.03911 740.925H9.26236L15.4524 705.57H20.0899C20.3188 705.537 20.5521 705.552 20.7748 705.616C20.9976 705.68 21.2048 705.791 21.3834 705.941C21.5619 706.091 21.7078 706.278 21.8119 706.489C21.9159 706.7 21.9757 706.931 21.9875 707.167C23.8242 718.572 25.6101 729.251 27.6803 740.552H27.9644L27.6803 733.139L27.6803 708.256L25.3362 706.773Z" fill="url(#paint1_linear)" />
    <path d="M25.3362 1410.77L25.3362 1409H33.9921V1410.77L31.648 1412.26L31.648 1445.87L33.8804 1447.35V1449H25.671C23.6415 1449 22.8804 1448.49 22.3731 1446.33C20.3131 1435.07 19.0751 1427.55 17.7559 1416.4H17.6443L12.6821 1446.47C12.2356 1448.54 11.505 1448.98 9.38413 1448.93C6.20793 1448.93 4.47269 1448.93 1.26605 1448.93V1447.28L3.44778 1445.8L3.44778 1412.37L0.992065 1410.66V1409H11.6673V1410.66L9.21162 1412.37L9.21162 1439.21L9.03911 1444.93H9.26236L15.4524 1409.57H20.0899C20.3188 1409.54 20.5521 1409.55 20.7748 1409.62C20.9976 1409.68 21.2048 1409.79 21.3834 1409.94C21.5619 1410.09 21.7078 1410.28 21.8119 1410.49C21.9159 1410.7 21.9757 1410.93 21.9875 1411.17C23.8242 1422.57 25.6101 1433.25 27.6803 1444.55H27.9644L27.6803 1437.14L27.6803 1412.26L25.3362 1410.77Z" fill="url(#paint2_linear)" />
    <path d="M25.3362 178.773L25.3362 177H33.9921V178.773L31.648 180.256L31.648 213.869L33.8804 215.351V217H25.671C23.6415 217 22.8804 216.492 22.3731 214.325C20.3131 203.065 19.0751 195.548 17.7559 184.403H17.6443L12.6821 214.47C12.2356 216.544 11.505 216.979 9.38413 216.927C6.20793 216.927 4.47269 216.927 1.26605 216.927V215.279L3.44778 213.796L3.44778 180.37L0.992065 178.659V177H11.6673V178.659L9.21162 180.37L9.21162 207.213L9.03911 212.925H9.26236L15.4524 177.57H20.0899C20.3188 177.537 20.5521 177.552 20.7748 177.616C20.9976 177.68 21.2048 177.791 21.3834 177.941C21.5619 178.091 21.7078 178.278 21.8119 178.489C21.9159 178.7 21.9757 178.931 21.9875 179.167C23.8242 190.572 25.6101 201.251 27.6803 212.552H27.9644L27.6803 205.139L27.6803 180.256L25.3362 178.773Z" fill="url(#paint3_linear)" />
    <path d="M25.3362 883.035L25.3362 881.262H33.9921V883.035L31.648 884.517L31.648 918.131L33.8804 919.613V921.262H25.671C23.6415 921.262 22.8804 920.754 22.3731 918.587C20.3131 907.327 19.0751 899.81 17.7559 888.665H17.6443L12.6821 918.732C12.2356 920.806 11.505 921.241 9.38413 921.189C6.20793 921.189 4.47269 921.189 1.26605 921.189V919.541L3.44778 918.058L3.44778 884.631L0.992065 882.921V881.262H11.6673V882.921L9.21162 884.631L9.21162 911.474L9.03911 917.187H9.26236L15.4524 881.832H20.0899C20.3188 881.799 20.5521 881.814 20.7748 881.878C20.9976 881.942 21.2048 882.052 21.3834 882.203C21.5619 882.353 21.7078 882.54 21.8119 882.751C21.9159 882.962 21.9757 883.193 21.9875 883.429C23.8242 894.834 25.6101 905.513 27.6803 916.814H27.9644L27.6803 909.401L27.6803 884.517L25.3362 883.035Z" fill="url(#paint4_linear)" />
    <path d="M25.3362 1587.03L25.3362 1585.26H33.9921V1587.03L31.648 1588.52L31.648 1622.13L33.8804 1623.61V1625.26H25.671C23.6415 1625.26 22.8804 1624.75 22.3731 1622.59C20.3131 1611.33 19.0751 1603.81 17.7559 1592.66H17.6443L12.6821 1622.73C12.2356 1624.81 11.505 1625.24 9.38413 1625.19C6.20793 1625.19 4.47269 1625.19 1.26605 1625.19V1623.54L3.44778 1622.06L3.44778 1588.63L0.992065 1586.92V1585.26H11.6673V1586.92L9.21162 1588.63L9.21162 1615.47L9.03911 1621.19H9.26236L15.4524 1585.83H20.0899C20.3188 1585.8 20.5521 1585.81 20.7748 1585.88C20.9976 1585.94 21.2048 1586.05 21.3834 1586.2C21.5619 1586.35 21.7078 1586.54 21.8119 1586.75C21.9159 1586.96 21.9757 1587.19 21.9875 1587.43C23.8242 1598.83 25.6101 1609.51 27.6803 1620.81H27.9644L27.6803 1613.4L27.6803 1588.52L25.3362 1587.03Z" fill="url(#paint5_linear)" />
    <path d="M25.3362 354.773L25.3362 353H33.9921V354.773L31.648 356.256L31.648 389.869L33.8804 391.351V393H25.671C23.6415 393 22.8804 392.492 22.3731 390.325C20.3131 379.065 19.0751 371.548 17.7559 360.403H17.6443L12.6821 390.47C12.2356 392.544 11.505 392.979 9.38413 392.927C6.20793 392.927 4.47269 392.927 1.26605 392.927V391.279L3.44778 389.796L3.44778 356.37L0.992065 354.659V353H11.6673V354.659L9.21162 356.37L9.21162 383.213L9.03911 388.925H9.26236L15.4524 353.57H20.0899C20.3188 353.537 20.5521 353.552 20.7748 353.616C20.9976 353.68 21.2048 353.791 21.3834 353.941C21.5619 354.091 21.7078 354.278 21.8119 354.489C21.9159 354.7 21.9757 354.931 21.9875 355.167C23.8242 366.572 25.6101 377.251 27.6803 388.552H27.9644L27.6803 381.139L27.6803 356.256L25.3362 354.773Z" fill="url(#paint6_linear)" />
    <path d="M25.3362 1059.03L25.3362 1057.26H33.9921V1059.03L31.648 1060.52L31.648 1094.13L33.8804 1095.61V1097.26H25.671C23.6415 1097.26 22.8804 1096.75 22.3731 1094.59C20.3131 1083.33 19.0751 1075.81 17.7559 1064.66H17.6443L12.6821 1094.73C12.2356 1096.81 11.505 1097.24 9.38413 1097.19C6.20793 1097.19 4.47269 1097.19 1.26605 1097.19V1095.54L3.44778 1094.06L3.44778 1060.63L0.992065 1058.92V1057.26H11.6673V1058.92L9.21162 1060.63L9.21162 1087.47L9.03911 1093.19H9.26236L15.4524 1057.83H20.0899C20.3188 1057.8 20.5521 1057.81 20.7748 1057.88C20.9976 1057.94 21.2048 1058.05 21.3834 1058.2C21.5619 1058.35 21.7078 1058.54 21.8119 1058.75C21.9159 1058.96 21.9757 1059.19 21.9875 1059.43C23.8242 1070.83 25.6101 1081.51 27.6803 1092.81H27.9644L27.6803 1085.4L27.6803 1060.52L25.3362 1059.03Z" fill="url(#paint7_linear)" />
    <path d="M25.3362 1763.03L25.3362 1761.26H33.9921V1763.03L31.648 1764.52L31.648 1798.13L33.8804 1799.61V1801.26H25.671C23.6415 1801.26 22.8804 1800.75 22.3731 1798.59C20.3131 1787.33 19.0751 1779.81 17.7559 1768.66H17.6443L12.6821 1798.73C12.2356 1800.81 11.505 1801.24 9.38413 1801.19C6.20793 1801.19 4.47269 1801.19 1.26605 1801.19V1799.54L3.44778 1798.06L3.44778 1764.63L0.992065 1762.92V1761.26H11.6673V1762.92L9.21162 1764.63L9.21162 1791.47L9.03911 1797.19H9.26236L15.4524 1761.83H20.0899C20.3188 1761.8 20.5521 1761.81 20.7748 1761.88C20.9976 1761.94 21.2048 1762.05 21.3834 1762.2C21.5619 1762.35 21.7078 1762.54 21.8119 1762.75C21.9159 1762.96 21.9757 1763.19 21.9875 1763.43C23.8242 1774.83 25.6101 1785.51 27.6803 1796.81H27.9644L27.6803 1789.4L27.6803 1764.52L25.3362 1763.03Z" fill="url(#paint8_linear)" />
    <path d="M25.3362 530.773L25.3362 529H33.9921V530.773L31.648 532.256L31.648 565.869L33.8804 567.351V569H25.671C23.6415 569 22.8804 568.492 22.3731 566.325C20.3131 555.065 19.0751 547.548 17.7559 536.403H17.6443L12.6821 566.47C12.2356 568.544 11.505 568.979 9.38413 568.927C6.20793 568.927 4.47269 568.927 1.26605 568.927V567.279L3.44778 565.796L3.44778 532.37L0.992065 530.659V529H11.6673V530.659L9.21162 532.37L9.21162 559.213L9.03911 564.925H9.26236L15.4524 529.57H20.0899C20.3188 529.537 20.5521 529.552 20.7748 529.616C20.9976 529.68 21.2048 529.791 21.3834 529.941C21.5619 530.091 21.7078 530.278 21.8119 530.489C21.9159 530.7 21.9757 530.931 21.9875 531.167C23.8242 542.572 25.6101 553.251 27.6803 564.552H27.9644L27.6803 557.139L27.6803 532.256L25.3362 530.773Z" fill="url(#paint9_linear)" />
    <path d="M25.3362 1235.03L25.3362 1233.26H33.9921V1235.03L31.648 1236.52L31.648 1270.13L33.8804 1271.61V1273.26H25.671C23.6415 1273.26 22.8804 1272.75 22.3731 1270.59C20.3131 1259.33 19.0751 1251.81 17.7559 1240.66H17.6443L12.6821 1270.73C12.2356 1272.81 11.505 1273.24 9.38413 1273.19C6.20793 1273.19 4.47269 1273.19 1.26605 1273.19V1271.54L3.44778 1270.06L3.44778 1236.63L0.992065 1234.92V1233.26H11.6673V1234.92L9.21162 1236.63L9.21162 1263.47L9.03911 1269.19H9.26236L15.4524 1233.83H20.0899C20.3188 1233.8 20.5521 1233.81 20.7748 1233.88C20.9976 1233.94 21.2048 1234.05 21.3834 1234.2C21.5619 1234.35 21.7078 1234.54 21.8119 1234.75C21.9159 1234.96 21.9757 1235.19 21.9875 1235.43C23.8242 1246.83 25.6101 1257.51 27.6803 1268.81H27.9644L27.6803 1261.4L27.6803 1236.52L25.3362 1235.03Z" fill="url(#paint10_linear)" />
    <path d="M25.3362 1939.03L25.3362 1937.26H33.9921V1939.03L31.648 1940.52L31.648 1974.13L33.8804 1975.61V1977.26H25.671C23.6415 1977.26 22.8804 1976.75 22.3731 1974.59C20.3131 1963.33 19.0751 1955.81 17.7559 1944.66H17.6443L12.6821 1974.73C12.2356 1976.81 11.505 1977.24 9.38413 1977.19C6.20793 1977.19 4.47269 1977.19 1.26605 1977.19V1975.54L3.44778 1974.06L3.44778 1940.63L0.992065 1938.92V1937.26H11.6673V1938.92L9.21162 1940.63L9.21162 1967.47L9.03911 1973.19H9.26236L15.4524 1937.83H20.0899C20.3188 1937.8 20.5521 1937.81 20.7748 1937.88C20.9976 1937.94 21.2048 1938.05 21.3834 1938.2C21.5619 1938.35 21.7078 1938.54 21.8119 1938.75C21.9159 1938.96 21.9757 1939.19 21.9875 1939.43C23.8242 1950.83 25.6101 1961.51 27.6803 1972.81H27.9644L27.6803 1965.4L27.6803 1940.52L25.3362 1939.03Z" fill="url(#paint11_linear)" />
    <path d="M9.64797 126.965V128.738H0.992065L0.992065 126.965L3.33616 125.483L3.33616 91.8694L1.10369 90.3868V88.7383H9.3131C11.3426 88.7383 12.1037 89.2463 12.6111 91.4132C14.671 102.673 15.909 110.19 17.2282 121.335H17.3399L22.302 91.2681C22.7485 89.1945 23.4792 88.759 25.6 88.8109C28.7762 88.8109 30.5114 88.8109 33.7181 88.8109V90.4594L31.5363 91.942L31.5363 125.369L33.9921 127.079V128.738H23.3168V127.079L25.7725 125.369L25.7725 98.5257L25.945 92.8129H25.7218L19.5317 128.168H14.8943C14.6653 128.201 14.432 128.186 14.2093 128.122C13.9866 128.058 13.7793 127.948 13.6008 127.797C13.4222 127.647 13.2763 127.46 13.1723 127.249C13.0683 127.038 13.0085 126.807 12.9967 126.571C11.16 115.166 9.37398 104.487 7.30387 93.1862H7.01974L7.30387 100.599L7.30387 125.483L9.64797 126.965Z" fill="url(#paint12_linear)" />
    <path d="M9.64797 831.227V833H0.992065L0.992065 831.227L3.33616 829.744L3.33616 796.131L1.10369 794.649V793H9.3131C11.3426 793 12.1037 793.508 12.6111 795.675C14.671 806.935 15.909 814.452 17.2282 825.597H17.3399L22.302 795.53C22.7485 793.456 23.4792 793.021 25.6 793.073C28.7762 793.073 30.5114 793.073 33.7181 793.073V794.721L31.5363 796.204L31.5363 829.63L33.9921 831.341V833H23.3168V831.341L25.7725 829.63L25.7725 802.787L25.945 797.075H25.7218L19.5317 832.43H14.8943C14.6653 832.463 14.432 832.448 14.2093 832.384C13.9866 832.32 13.7793 832.209 13.6008 832.059C13.4222 831.909 13.2763 831.722 13.1723 831.511C13.0683 831.3 13.0085 831.069 12.9967 830.833C11.16 819.428 9.37398 808.749 7.30387 797.448H7.01974L7.30387 804.861L7.30387 829.744L9.64797 831.227Z" fill="url(#paint13_linear)" />
    <path d="M9.64797 1535.23V1537H0.992065L0.992065 1535.23L3.33616 1533.74L3.33616 1500.13L1.10369 1498.65V1497H9.3131C11.3426 1497 12.1037 1497.51 12.6111 1499.67C14.671 1510.93 15.909 1518.45 17.2282 1529.6H17.3399L22.302 1499.53C22.7485 1497.46 23.4792 1497.02 25.6 1497.07C28.7762 1497.07 30.5114 1497.07 33.7181 1497.07V1498.72L31.5363 1500.2L31.5363 1533.63L33.9921 1535.34V1537H23.3168V1535.34L25.7725 1533.63L25.7725 1506.79L25.945 1501.07H25.7218L19.5317 1536.43H14.8943C14.6653 1536.46 14.432 1536.45 14.2093 1536.38C13.9866 1536.32 13.7793 1536.21 13.6008 1536.06C13.4222 1535.91 13.2763 1535.72 13.1723 1535.51C13.0683 1535.3 13.0085 1535.07 12.9967 1534.83C11.16 1523.43 9.37398 1512.75 7.30387 1501.45H7.01974L7.30387 1508.86L7.30387 1533.74L9.64797 1535.23Z" fill="url(#paint14_linear)" />
    <path d="M9.64797 303.227V305H0.992065L0.992065 303.227L3.33616 301.744L3.33616 268.131L1.10369 266.649V265H9.3131C11.3426 265 12.1037 265.508 12.6111 267.675C14.671 278.935 15.909 286.452 17.2282 297.597H17.3399L22.302 267.53C22.7485 265.456 23.4792 265.021 25.6 265.073C28.7762 265.073 30.5114 265.073 33.7181 265.073V266.721L31.5363 268.204L31.5363 301.63L33.9921 303.341V305H23.3168V303.341L25.7725 301.63L25.7725 274.787L25.945 269.075H25.7218L19.5317 304.43H14.8943C14.6653 304.463 14.432 304.448 14.2093 304.384C13.9866 304.32 13.7793 304.209 13.6008 304.059C13.4222 303.909 13.2763 303.722 13.1723 303.511C13.0683 303.3 13.0085 303.069 12.9967 302.833C11.16 291.428 9.37398 280.749 7.30387 269.448H7.01974L7.30387 276.861L7.30387 301.744L9.64797 303.227Z" fill="url(#paint15_linear)" />
    <path d="M9.64797 1007.49V1009.26H0.992065L0.992065 1007.49L3.33616 1006.01L3.33616 972.393L1.10369 970.91V969.262H9.3131C11.3426 969.262 12.1037 969.77 12.6111 971.937C14.671 983.196 15.909 990.713 17.2282 1001.86H17.3399L22.302 971.792C22.7485 969.718 23.4792 969.282 25.6 969.334C28.7762 969.334 30.5114 969.334 33.7181 969.334V970.983L31.5363 972.465L31.5363 1005.89L33.9921 1007.6V1009.26H23.3168V1007.6L25.7725 1005.89L25.7725 979.049L25.945 973.336H25.7218L19.5317 1008.69H14.8943C14.6653 1008.72 14.432 1008.71 14.2093 1008.65C13.9866 1008.58 13.7793 1008.47 13.6008 1008.32C13.4222 1008.17 13.2763 1007.98 13.1723 1007.77C13.0683 1007.56 13.0085 1007.33 12.9967 1007.09C11.16 995.69 9.37398 985.011 7.30387 973.71H7.01974L7.30387 981.123L7.30387 1006.01L9.64797 1007.49Z" fill="url(#paint16_linear)" />
    <path d="M9.64797 1711.49V1713.26H0.992065L0.992065 1711.49L3.33616 1710.01L3.33616 1676.39L1.10369 1674.91V1673.26H9.3131C11.3426 1673.26 12.1037 1673.77 12.6111 1675.94C14.671 1687.2 15.909 1694.71 17.2282 1705.86H17.3399L22.302 1675.79C22.7485 1673.72 23.4792 1673.28 25.6 1673.33C28.7762 1673.33 30.5114 1673.33 33.7181 1673.33V1674.98L31.5363 1676.47L31.5363 1709.89L33.9921 1711.6V1713.26H23.3168V1711.6L25.7725 1709.89L25.7725 1683.05L25.945 1677.34H25.7218L19.5317 1712.69H14.8943C14.6653 1712.72 14.432 1712.71 14.2093 1712.65C13.9866 1712.58 13.7793 1712.47 13.6008 1712.32C13.4222 1712.17 13.2763 1711.98 13.1723 1711.77C13.0683 1711.56 13.0085 1711.33 12.9967 1711.09C11.16 1699.69 9.37398 1689.01 7.30387 1677.71H7.01974L7.30387 1685.12L7.30387 1710.01L9.64797 1711.49Z" fill="url(#paint17_linear)" />
    <path d="M9.64797 479.227V481H0.992065L0.992065 479.227L3.33616 477.744L3.33616 444.131L1.10369 442.649V441H9.3131C11.3426 441 12.1037 441.508 12.6111 443.675C14.671 454.935 15.909 462.452 17.2282 473.597H17.3399L22.302 443.53C22.7485 441.456 23.4792 441.021 25.6 441.073C28.7762 441.073 30.5114 441.073 33.7181 441.073V442.721L31.5363 444.204L31.5363 477.63L33.9921 479.341V481H23.3168V479.341L25.7725 477.63L25.7725 450.787L25.945 445.075H25.7218L19.5317 480.43H14.8943C14.6653 480.463 14.432 480.448 14.2093 480.384C13.9866 480.32 13.7793 480.209 13.6008 480.059C13.4222 479.909 13.2763 479.722 13.1723 479.511C13.0683 479.3 13.0085 479.069 12.9967 478.833C11.16 467.428 9.37398 456.749 7.30387 445.448H7.01974L7.30387 452.861L7.30387 477.744L9.64797 479.227Z" fill="url(#paint18_linear)" />
    <path d="M9.64797 1183.49V1185.26H0.992065L0.992065 1183.49L3.33616 1182.01L3.33616 1148.39L1.10369 1146.91V1145.26H9.3131C11.3426 1145.26 12.1037 1145.77 12.6111 1147.94C14.671 1159.2 15.909 1166.71 17.2282 1177.86H17.3399L22.302 1147.79C22.7485 1145.72 23.4792 1145.28 25.6 1145.33C28.7762 1145.33 30.5114 1145.33 33.7181 1145.33V1146.98L31.5363 1148.47L31.5363 1181.89L33.9921 1183.6V1185.26H23.3168V1183.6L25.7725 1181.89L25.7725 1155.05L25.945 1149.34H25.7218L19.5317 1184.69H14.8943C14.6653 1184.72 14.432 1184.71 14.2093 1184.65C13.9866 1184.58 13.7793 1184.47 13.6008 1184.32C13.4222 1184.17 13.2763 1183.98 13.1723 1183.77C13.0683 1183.56 13.0085 1183.33 12.9967 1183.09C11.16 1171.69 9.37398 1161.01 7.30387 1149.71H7.01974L7.30387 1157.12L7.30387 1182.01L9.64797 1183.49Z" fill="url(#paint19_linear)" />
    <path d="M9.64797 1887.49V1889.26H0.992065L0.992065 1887.49L3.33616 1886.01L3.33616 1852.39L1.10369 1850.91V1849.26H9.3131C11.3426 1849.26 12.1037 1849.77 12.6111 1851.94C14.671 1863.2 15.909 1870.71 17.2282 1881.86H17.3399L22.302 1851.79C22.7485 1849.72 23.4792 1849.28 25.6 1849.33C28.7762 1849.33 30.5114 1849.33 33.7181 1849.33V1850.98L31.5363 1852.47L31.5363 1885.89L33.9921 1887.6V1889.26H23.3168V1887.6L25.7725 1885.89L25.7725 1859.05L25.945 1853.34H25.7218L19.5317 1888.69H14.8943C14.6653 1888.72 14.432 1888.71 14.2093 1888.65C13.9866 1888.58 13.7793 1888.47 13.6008 1888.32C13.4222 1888.17 13.2763 1887.98 13.1723 1887.77C13.0683 1887.56 13.0085 1887.33 12.9967 1887.09C11.16 1875.69 9.37398 1865.01 7.30387 1853.71H7.01974L7.30387 1861.12L7.30387 1886.01L9.64797 1887.49Z" fill="url(#paint20_linear)" />
    <path d="M9.64797 655.227V657H0.992065L0.992065 655.227L3.33616 653.744L3.33616 620.131L1.10369 618.649V617H9.3131C11.3426 617 12.1037 617.508 12.6111 619.675C14.671 630.935 15.909 638.452 17.2282 649.597H17.3399L22.302 619.53C22.7485 617.456 23.4792 617.021 25.6 617.073C28.7762 617.073 30.5114 617.073 33.7181 617.073V618.721L31.5363 620.204L31.5363 653.63L33.9921 655.341V657H23.3168V655.341L25.7725 653.63L25.7725 626.787L25.945 621.075H25.7218L19.5317 656.43H14.8943C14.6653 656.463 14.432 656.448 14.2093 656.384C13.9866 656.32 13.7793 656.209 13.6008 656.059C13.4222 655.909 13.2763 655.722 13.1723 655.511C13.0683 655.3 13.0085 655.069 12.9967 654.833C11.16 643.428 9.37398 632.749 7.30387 621.448H7.01974L7.30387 628.861L7.30387 653.744L9.64797 655.227Z" fill="url(#paint21_linear)" />
    <path d="M9.64797 1359.49V1361.26H0.992065L0.992065 1359.49L3.33616 1358.01L3.33616 1324.39L1.10369 1322.91V1321.26H9.3131C11.3426 1321.26 12.1037 1321.77 12.6111 1323.94C14.671 1335.2 15.909 1342.71 17.2282 1353.86H17.3399L22.302 1323.79C22.7485 1321.72 23.4792 1321.28 25.6 1321.33C28.7762 1321.33 30.5114 1321.33 33.7181 1321.33V1322.98L31.5363 1324.47L31.5363 1357.89L33.9921 1359.6V1361.26H23.3168V1359.6L25.7725 1357.89L25.7725 1331.05L25.945 1325.34H25.7218L19.5317 1360.69H14.8943C14.6653 1360.72 14.432 1360.71 14.2093 1360.65C13.9866 1360.58 13.7793 1360.47 13.6008 1360.32C13.4222 1360.17 13.2763 1359.98 13.1723 1359.77C13.0683 1359.56 13.0085 1359.33 12.9967 1359.09C11.16 1347.69 9.37398 1337.01 7.30387 1325.71H7.01974L7.30387 1333.12L7.30387 1358.01L9.64797 1359.49Z" fill="url(#paint22_linear)" />
    <path d="M9.64797 2063.49V2065.26H0.992065L0.992065 2063.49L3.33616 2062.01L3.33616 2028.39L1.10369 2026.91V2025.26H9.3131C11.3426 2025.26 12.1037 2025.77 12.6111 2027.94C14.671 2039.2 15.909 2046.71 17.2282 2057.86H17.3399L22.302 2027.79C22.7485 2025.72 23.4792 2025.28 25.6 2025.33C28.7762 2025.33 30.5114 2025.33 33.7181 2025.33V2026.98L31.5363 2028.47L31.5363 2061.89L33.9921 2063.6V2065.26H23.3168V2063.6L25.7725 2061.89L25.7725 2035.05L25.945 2029.34H25.7218L19.5317 2064.69H14.8943C14.6653 2064.72 14.432 2064.71 14.2093 2064.65C13.9866 2064.58 13.7793 2064.47 13.6008 2064.32C13.4222 2064.17 13.2763 2063.98 13.1723 2063.77C13.0683 2063.56 13.0085 2063.33 12.9967 2063.09C11.16 2051.69 9.37398 2041.01 7.30387 2029.71H7.01974L7.30387 2037.12L7.30387 2062.01L9.64797 2063.49Z" fill="url(#paint23_linear)" />
    <defs>
        <linearGradient id="paint0_linear" x1="17.4921" y1="40.7383" x2="17.4921" y2="0.738281" gradientUnits="userSpaceOnUse">
            <stop stop-color="#251351" />
            <stop offset="1" stop-color="#251351" stop-opacity="0.5" />
        </linearGradient>
        <linearGradient id="paint1_linear" x1="17.4921" y1="745" x2="17.4921" y2="705" gradientUnits="userSpaceOnUse">
            <stop stop-color="#251351" />
            <stop offset="1" stop-color="#251351" stop-opacity="0.5" />
        </linearGradient>
        <linearGradient id="paint2_linear" x1="17.4921" y1="1449" x2="17.4921" y2="1409" gradientUnits="userSpaceOnUse">
            <stop stop-color="#251351" />
            <stop offset="1" stop-color="#251351" stop-opacity="0.5" />
        </linearGradient>
        <linearGradient id="paint3_linear" x1="17.4921" y1="217" x2="17.4921" y2="177" gradientUnits="userSpaceOnUse">
            <stop stop-color="#251351" />
            <stop offset="1" stop-color="#251351" stop-opacity="0.5" />
        </linearGradient>
        <linearGradient id="paint4_linear" x1="17.4921" y1="921.262" x2="17.4921" y2="881.262" gradientUnits="userSpaceOnUse">
            <stop stop-color="#251351" />
            <stop offset="1" stop-color="#251351" stop-opacity="0.5" />
        </linearGradient>
        <linearGradient id="paint5_linear" x1="17.4921" y1="1625.26" x2="17.4921" y2="1585.26" gradientUnits="userSpaceOnUse">
            <stop stop-color="#251351" />
            <stop offset="1" stop-color="#251351" stop-opacity="0.5" />
        </linearGradient>
        <linearGradient id="paint6_linear" x1="17.4921" y1="393" x2="17.4921" y2="353" gradientUnits="userSpaceOnUse">
            <stop stop-color="#251351" />
            <stop offset="1" stop-color="#251351" stop-opacity="0.5" />
        </linearGradient>
        <linearGradient id="paint7_linear" x1="17.4921" y1="1097.26" x2="17.4921" y2="1057.26" gradientUnits="userSpaceOnUse">
            <stop stop-color="#251351" />
            <stop offset="1" stop-color="#251351" stop-opacity="0.5" />
        </linearGradient>
        <linearGradient id="paint8_linear" x1="17.4921" y1="1801.26" x2="17.4921" y2="1761.26" gradientUnits="userSpaceOnUse">
            <stop stop-color="#251351" />
            <stop offset="1" stop-color="#251351" stop-opacity="0.5" />
        </linearGradient>
        <linearGradient id="paint9_linear" x1="17.4921" y1="569" x2="17.4921" y2="529" gradientUnits="userSpaceOnUse">
            <stop stop-color="#251351" />
            <stop offset="1" stop-color="#251351" stop-opacity="0.5" />
        </linearGradient>
        <linearGradient id="paint10_linear" x1="17.4921" y1="1273.26" x2="17.4921" y2="1233.26" gradientUnits="userSpaceOnUse">
            <stop stop-color="#251351" />
            <stop offset="1" stop-color="#251351" stop-opacity="0.5" />
        </linearGradient>
        <linearGradient id="paint11_linear" x1="17.4921" y1="1977.26" x2="17.4921" y2="1937.26" gradientUnits="userSpaceOnUse">
            <stop stop-color="#251351" />
            <stop offset="1" stop-color="#251351" stop-opacity="0.5" />
        </linearGradient>
        <linearGradient id="paint12_linear" x1="17.4921" y1="88.7383" x2="17.4921" y2="128.738" gradientUnits="userSpaceOnUse">
            <stop stop-color="#251351" />
            <stop offset="1" stop-color="#251351" stop-opacity="0.5" />
        </linearGradient>
        <linearGradient id="paint13_linear" x1="17.4921" y1="793" x2="17.4921" y2="833" gradientUnits="userSpaceOnUse">
            <stop stop-color="#251351" />
            <stop offset="1" stop-color="#251351" stop-opacity="0.5" />
        </linearGradient>
        <linearGradient id="paint14_linear" x1="17.4921" y1="1497" x2="17.4921" y2="1537" gradientUnits="userSpaceOnUse">
            <stop stop-color="#251351" />
            <stop offset="1" stop-color="#251351" stop-opacity="0.5" />
        </linearGradient>
        <linearGradient id="paint15_linear" x1="17.4921" y1="265" x2="17.4921" y2="305" gradientUnits="userSpaceOnUse">
            <stop stop-color="#251351" />
            <stop offset="1" stop-color="#251351" stop-opacity="0.5" />
        </linearGradient>
        <linearGradient id="paint16_linear" x1="17.4921" y1="969.262" x2="17.4921" y2="1009.26" gradientUnits="userSpaceOnUse">
            <stop stop-color="#251351" />
            <stop offset="1" stop-color="#251351" stop-opacity="0.5" />
        </linearGradient>
        <linearGradient id="paint17_linear" x1="17.4921" y1="1673.26" x2="17.4921" y2="1713.26" gradientUnits="userSpaceOnUse">
            <stop stop-color="#251351" />
            <stop offset="1" stop-color="#251351" stop-opacity="0.5" />
        </linearGradient>
        <linearGradient id="paint18_linear" x1="17.4921" y1="441" x2="17.4921" y2="481" gradientUnits="userSpaceOnUse">
            <stop stop-color="#251351" />
            <stop offset="1" stop-color="#251351" stop-opacity="0.5" />
        </linearGradient>
        <linearGradient id="paint19_linear" x1="17.4921" y1="1145.26" x2="17.4921" y2="1185.26" gradientUnits="userSpaceOnUse">
            <stop stop-color="#251351" />
            <stop offset="1" stop-color="#251351" stop-opacity="0.5" />
        </linearGradient>
        <linearGradient id="paint20_linear" x1="17.4921" y1="1849.26" x2="17.4921" y2="1889.26" gradientUnits="userSpaceOnUse">
            <stop stop-color="#251351" />
            <stop offset="1" stop-color="#251351" stop-opacity="0.5" />
        </linearGradient>
        <linearGradient id="paint21_linear" x1="17.4921" y1="617" x2="17.4921" y2="657" gradientUnits="userSpaceOnUse">
            <stop stop-color="#251351" />
            <stop offset="1" stop-color="#251351" stop-opacity="0.5" />
        </linearGradient>
        <linearGradient id="paint22_linear" x1="17.4921" y1="1321.26" x2="17.4921" y2="1361.26" gradientUnits="userSpaceOnUse">
            <stop stop-color="#251351" />
            <stop offset="1" stop-color="#251351" stop-opacity="0.5" />
        </linearGradient>
        <linearGradient id="paint23_linear" x1="17.4921" y1="2025.26" x2="17.4921" y2="2065.26" gradientUnits="userSpaceOnUse">
            <stop stop-color="#251351" />
            <stop offset="1" stop-color="#251351" stop-opacity="0.5" />
        </linearGradient>
    </defs>
</svg>
