<svg width="408" height="174" viewBox="0 0 408 174" fill="none" xmlns="http://www.w3.org/2000/svg">
    <path d="M0 25.6C0 16.6392 0 12.1587 1.7439 8.73615C3.27787 5.72556 5.72556 3.27787 8.73615 1.7439C12.1587 0 16.6392 0 25.6 0H382.4C391.361 0 395.841 0 399.264 1.7439C402.274 3.27787 404.722 5.72556 406.256 8.73615C408 12.1587 408 16.6392 408 25.6V167.439C408 169.544 408 170.596 407.567 171.142C407.191 171.617 406.62 171.895 406.014 171.899C405.318 171.904 404.488 171.257 402.83 169.961L382.946 154.427C380.371 152.414 379.083 151.408 377.655 150.693C376.388 150.059 375.042 149.596 373.653 149.316C372.088 149 370.454 149 367.186 149H25.6C16.6392 149 12.1587 149 8.73615 147.256C5.72556 145.722 3.27787 143.274 1.7439 140.264C0 136.841 0 132.361 0 123.4V25.6Z" fill="#23124E" />
    <path d="M124.733 90.8639V81.9039H127.581C127.965 81.2426 128.285 80.4639 128.541 79.5679C128.818 78.6506 129.042 77.6692 129.213 76.6239C129.384 75.5572 129.501 74.4479 129.565 73.2959C129.65 72.1226 129.693 70.9386 129.693 69.7439V63.0879H145.213V81.9039H147.741V90.8639H143.613V85.9999H128.861V90.8639H124.733ZM134.013 70.4799C134.013 72.6772 133.853 74.7572 133.533 76.7199C133.234 78.6826 132.744 80.4106 132.061 81.9039H140.893V67.1839H134.013V70.4799Z" fill="#F3EFF5" />
    <path d="M157.919 69.8079C159.135 69.8079 160.244 70.0212 161.247 70.4479C162.271 70.8532 163.146 71.4292 163.871 72.1759C164.618 72.9012 165.194 73.7759 165.599 74.7999C166.026 75.8239 166.239 76.9439 166.239 78.1599C166.239 79.3759 166.026 80.4959 165.599 81.5199C165.194 82.5439 164.618 83.4292 163.871 84.1759C163.146 84.9012 162.271 85.4772 161.247 85.9039C160.244 86.3092 159.135 86.5119 157.919 86.5119C156.703 86.5119 155.583 86.3092 154.559 85.9039C153.556 85.4772 152.682 84.9012 151.935 84.1759C151.21 83.4292 150.634 82.5439 150.207 81.5199C149.802 80.4959 149.599 79.3759 149.599 78.1599C149.599 76.9439 149.802 75.8239 150.207 74.7999C150.634 73.7759 151.21 72.9012 151.935 72.1759C152.682 71.4292 153.556 70.8532 154.559 70.4479C155.583 70.0212 156.703 69.8079 157.919 69.8079ZM157.919 82.6399C158.452 82.6399 158.964 82.5439 159.455 82.3519C159.967 82.1386 160.415 81.8399 160.799 81.4559C161.183 81.0719 161.482 80.6026 161.695 80.0479C161.93 79.4932 162.047 78.8639 162.047 78.1599C162.047 77.4559 161.93 76.8266 161.695 76.2719C161.482 75.7172 161.183 75.2479 160.799 74.8639C160.415 74.4799 159.967 74.1919 159.455 73.9999C158.964 73.7866 158.452 73.6799 157.919 73.6799C157.364 73.6799 156.842 73.7866 156.351 73.9999C155.86 74.1919 155.423 74.4799 155.039 74.8639C154.655 75.2479 154.346 75.7172 154.111 76.2719C153.898 76.8266 153.791 77.4559 153.791 78.1599C153.791 78.8639 153.898 79.4932 154.111 80.0479C154.346 80.6026 154.655 81.0719 155.039 81.4559C155.423 81.8399 155.86 82.1386 156.351 82.3519C156.842 82.5439 157.364 82.6399 157.919 82.6399Z" fill="#F3EFF5" />
    <path d="M173.068 78.5119H172.812V85.9999H168.62V70.3199H172.812V77.0079H173.068L178.124 70.3199H183.052V70.5759L177.452 77.7119L183.404 85.7439V85.9999H178.476L173.068 78.5119Z" fill="#F3EFF5" />
    <path d="M190.298 85.2319L183.706 70.3199H188.474L192.442 79.8239H192.666L196.474 70.3199H201.146L191.322 92.9119H186.81L190.298 85.2319Z" fill="#F3EFF5" />
    <path d="M203.058 70.3199H217.554V85.9999H213.362V74.1919H207.25V85.9999H203.058V70.3199Z" fill="#F3EFF5" />
    <path d="M230.659 84.3359H230.403C229.912 84.9332 229.315 85.4452 228.611 85.8719C227.928 86.2986 227.043 86.5119 225.955 86.5119C225.144 86.5119 224.376 86.3732 223.651 86.0959C222.947 85.8399 222.328 85.4772 221.795 85.0079C221.262 84.5386 220.846 83.9732 220.547 83.3119C220.248 82.6506 220.099 81.9252 220.099 81.1359C220.099 80.3252 220.259 79.5999 220.579 78.9599C220.899 78.2986 221.347 77.7332 221.923 77.2639C222.499 76.7946 223.171 76.4426 223.939 76.2079C224.728 75.9519 225.582 75.8239 226.499 75.8239C227.523 75.8239 228.366 75.9092 229.027 76.0799C229.688 76.2292 230.232 76.3892 230.659 76.5599V76.0799C230.659 75.2479 230.328 74.5652 229.667 74.0319C229.006 73.4772 228.184 73.1999 227.203 73.1999C225.752 73.1999 224.526 73.8079 223.523 75.0239L220.483 72.9439C222.147 70.8532 224.419 69.8079 227.299 69.8079C229.731 69.8079 231.587 70.3839 232.867 71.5359C234.147 72.6666 234.787 74.3519 234.787 76.5919V85.9999H230.659V84.3359ZM230.659 79.6319C230.168 79.3972 229.656 79.2159 229.123 79.0879C228.611 78.9386 228.046 78.8639 227.427 78.8639C226.424 78.8639 225.646 79.0879 225.091 79.5359C224.558 79.9626 224.291 80.4959 224.291 81.1359C224.291 81.7759 224.547 82.2879 225.059 82.6719C225.592 83.0559 226.2 83.2479 226.883 83.2479C227.438 83.2479 227.95 83.1519 228.419 82.9599C228.888 82.7466 229.283 82.4799 229.603 82.1599C229.944 81.8186 230.2 81.4346 230.371 81.0079C230.563 80.5599 230.659 80.1012 230.659 79.6319Z" fill="#F3EFF5" />
    <path d="M252.874 82.2239C252.149 83.5039 251.168 84.5386 249.93 85.3279C248.714 86.1172 247.221 86.5119 245.45 86.5119C244.256 86.5119 243.146 86.3092 242.122 85.9039C241.12 85.4772 240.245 84.8906 239.498 84.1439C238.752 83.3972 238.165 82.5226 237.738 81.5199C237.333 80.4959 237.13 79.3759 237.13 78.1599C237.13 77.0292 237.333 75.9626 237.738 74.9599C238.144 73.9359 238.709 73.0506 239.434 72.3039C240.16 71.5359 241.013 70.9279 241.994 70.4799C242.997 70.0319 244.096 69.8079 245.29 69.8079C246.549 69.8079 247.669 70.0212 248.65 70.4479C249.632 70.8532 250.453 71.4292 251.114 72.1759C251.776 72.9012 252.277 73.7652 252.618 74.7679C252.96 75.7706 253.13 76.8586 253.13 78.0319C253.13 78.1812 253.13 78.3092 253.13 78.4159C253.109 78.5439 253.098 78.6612 253.098 78.7679C253.077 78.8746 253.066 78.9919 253.066 79.1199H241.258C241.344 79.7599 241.514 80.3146 241.77 80.7839C242.048 81.2319 242.378 81.6159 242.762 81.9359C243.168 82.2346 243.605 82.4586 244.074 82.6079C244.544 82.7359 245.024 82.7999 245.514 82.7999C246.474 82.7999 247.264 82.5866 247.882 82.1599C248.522 81.7119 249.024 81.1572 249.386 80.4959L252.874 82.2239ZM249.066 76.1439C249.045 75.8666 248.949 75.5572 248.778 75.2159C248.629 74.8746 248.394 74.5546 248.074 74.2559C247.776 73.9572 247.392 73.7119 246.922 73.5199C246.474 73.3279 245.93 73.2319 245.29 73.2319C244.394 73.2319 243.605 73.4879 242.922 73.9999C242.24 74.5119 241.76 75.2266 241.482 76.1439H249.066Z" fill="#F3EFF5" />
    <path d="M270.304 85.9999V79.5999L270.56 76.5279H270.304L266.464 83.9519H263.52L259.68 76.5279H259.424L259.68 79.5999V85.9999H255.68V70.3199H260.672L264.864 78.5439H265.12L269.312 70.3199H274.304V85.9999H270.304Z" fill="#F3EFF5" />
    <path d="M280.273 86.1919C279.505 86.1919 278.844 85.9252 278.289 85.3919C277.756 84.8372 277.489 84.1759 277.489 83.4079C277.489 82.6399 277.756 81.9892 278.289 81.4559C278.844 80.9226 279.505 80.6559 280.273 80.6559C281.041 80.6559 281.692 80.9226 282.225 81.4559C282.758 81.9892 283.025 82.6399 283.025 83.4079C283.025 84.1759 282.758 84.8372 282.225 85.3919C281.692 85.9252 281.041 86.1919 280.273 86.1919ZM278.097 69.6799V63.0879H282.417V69.6799L281.969 78.1279H278.545L278.097 69.6799Z" fill="#F3EFF5" />
</svg>
