<svg width="408" height="174" viewBox="0 0 408 174" fill="none" xmlns="http://www.w3.org/2000/svg">
    <path d="M0 25.6C0 16.6392 0 12.1587 1.7439 8.73615C3.27787 5.72556 5.72556 3.27787 8.73615 1.7439C12.1587 0 16.6392 0 25.6 0H382.4C391.361 0 395.841 0 399.264 1.7439C402.274 3.27787 404.722 5.72556 406.256 8.73615C408 12.1587 408 16.6392 408 25.6V167.439C408 169.544 408 170.596 407.567 171.142C407.191 171.617 406.62 171.895 406.014 171.899C405.318 171.904 404.488 171.257 402.83 169.961L382.946 154.427C380.371 152.414 379.083 151.408 377.655 150.693C376.388 150.059 375.042 149.596 373.653 149.316C372.088 149 370.454 149 367.186 149H25.6C16.6392 149 12.1587 149 8.73615 147.256C5.72556 145.722 3.27787 143.274 1.7439 140.264C0 136.841 0 132.361 0 123.4V25.6Z" fill="#23124E" />
    <path d="M92.6798 82.3202C91.5491 83.6855 90.2158 84.7308 88.6798 85.4562C87.1438 86.1602 85.4264 86.5122 83.5278 86.5122C81.8211 86.5122 80.2318 86.2028 78.7598 85.5842C77.3091 84.9655 76.0504 84.1228 74.9838 83.0562C73.9171 81.9895 73.0744 80.7308 72.4558 79.2802C71.8371 77.8082 71.5278 76.2295 71.5278 74.5442C71.5278 72.8588 71.8371 71.2908 72.4558 69.8402C73.0744 68.3682 73.9171 67.0988 74.9838 66.0322C76.0504 64.9655 77.3091 64.1228 78.7598 63.5042C80.2318 62.8855 81.8211 62.5762 83.5278 62.5762C85.3624 62.5762 86.9731 62.8962 88.3598 63.5362C89.7678 64.1762 91.0158 65.1042 92.1038 66.3202L89.0638 69.2642C88.3811 68.4748 87.5918 67.8455 86.6958 67.3762C85.8211 66.9068 84.7758 66.6722 83.5598 66.6722C82.4931 66.6722 81.4904 66.8642 80.5518 67.2482C79.6131 67.6108 78.7918 68.1335 78.0878 68.8162C77.4051 69.4988 76.8611 70.3308 76.4558 71.3122C76.0504 72.2722 75.8478 73.3495 75.8478 74.5442C75.8478 75.7388 76.0504 76.8268 76.4558 77.8082C76.8611 78.7682 77.4051 79.5895 78.0878 80.2722C78.7918 80.9548 79.6131 81.4882 80.5518 81.8722C81.4904 82.2348 82.4931 82.4162 83.5598 82.4162C84.8398 82.4162 85.9704 82.1602 86.9518 81.6482C87.9544 81.1148 88.8398 80.3682 89.6078 79.4082L92.6798 82.3202Z" fill="#F3EFF5" />
    <path d="M95.3233 70.3202H106.811V73.9042H99.5153V86.0002H95.3233V70.3202Z" fill="#F3EFF5" />
    <path d="M116.497 69.8082C117.713 69.8082 118.823 70.0215 119.825 70.4482C120.849 70.8535 121.724 71.4295 122.449 72.1762C123.196 72.9015 123.772 73.7762 124.177 74.8002C124.604 75.8242 124.817 76.9442 124.817 78.1602C124.817 79.3762 124.604 80.4962 124.177 81.5202C123.772 82.5442 123.196 83.4295 122.449 84.1762C121.724 84.9015 120.849 85.4775 119.825 85.9042C118.823 86.3095 117.713 86.5122 116.497 86.5122C115.281 86.5122 114.161 86.3095 113.137 85.9042C112.135 85.4775 111.26 84.9015 110.513 84.1762C109.788 83.4295 109.212 82.5442 108.785 81.5202C108.38 80.4962 108.177 79.3762 108.177 78.1602C108.177 76.9442 108.38 75.8242 108.785 74.8002C109.212 73.7762 109.788 72.9015 110.513 72.1762C111.26 71.4295 112.135 70.8535 113.137 70.4482C114.161 70.0215 115.281 69.8082 116.497 69.8082ZM116.497 82.6402C117.031 82.6402 117.543 82.5442 118.033 82.3522C118.545 82.1388 118.993 81.8402 119.377 81.4562C119.761 81.0722 120.06 80.6028 120.273 80.0482C120.508 79.4935 120.625 78.8642 120.625 78.1602C120.625 77.4562 120.508 76.8268 120.273 76.2722C120.06 75.7175 119.761 75.2482 119.377 74.8642C118.993 74.4802 118.545 74.1922 118.033 74.0002C117.543 73.7868 117.031 73.6802 116.497 73.6802C115.943 73.6802 115.42 73.7868 114.929 74.0002C114.439 74.1922 114.001 74.4802 113.617 74.8642C113.233 75.2482 112.924 75.7175 112.689 76.2722C112.476 76.8268 112.369 77.4562 112.369 78.1602C112.369 78.8642 112.476 79.4935 112.689 80.0482C112.924 80.6028 113.233 81.0722 113.617 81.4562C114.001 81.8402 114.439 82.1388 114.929 82.3522C115.42 82.5442 115.943 82.6402 116.497 82.6402Z" fill="#F3EFF5" />
    <path d="M137.918 86.0002V79.9522H131.39V86.0002H127.198V70.3202H131.39V76.0802H137.918V70.3202H142.11V86.0002H137.918Z" fill="#F3EFF5" />
    <path d="M143.906 86.0002V85.7442L147.842 80.4962L147.746 80.3042C146.765 79.8988 145.954 79.2908 145.314 78.4802C144.696 77.6482 144.386 76.6668 144.386 75.5362C144.386 74.7468 144.546 74.0322 144.866 73.3922C145.186 72.7522 145.613 72.2082 146.146 71.7602C146.701 71.2908 147.33 70.9388 148.034 70.7042C148.76 70.4482 149.517 70.3202 150.306 70.3202H158.242V86.0002H154.274V80.7842H152.098L148.354 86.0002H143.906ZM148.386 75.5682C148.386 76.2082 148.61 76.6988 149.058 77.0402C149.506 77.3815 150.04 77.5522 150.658 77.5522H154.274V73.6162H150.658C150.04 73.6162 149.506 73.7868 149.058 74.1282C148.61 74.4695 148.386 74.9495 148.386 75.5682Z" fill="#F3EFF5" />
    <path d="M176.479 86.0002H172.287V79.6322L172.543 76.5602H172.287L166.015 86.0002H161.823V70.3202H166.015V76.6882L165.759 79.7602H166.015L172.287 70.3202H176.479V86.0002ZM169.407 67.9522C168.831 67.9522 168.277 67.8455 167.743 67.6322C167.21 67.4188 166.741 67.1202 166.335 66.7362C165.951 66.3522 165.631 65.8935 165.375 65.3602C165.141 64.8268 165.023 64.2402 165.023 63.6002H167.999C167.999 63.9842 168.117 64.3255 168.351 64.6242C168.607 64.9228 168.959 65.0722 169.407 65.0722C169.834 65.0722 170.165 64.9228 170.399 64.6242C170.655 64.3255 170.783 63.9842 170.783 63.6002H173.727C173.727 64.2402 173.61 64.8268 173.375 65.3602C173.141 65.8935 172.821 66.3522 172.415 66.7362C172.031 67.1202 171.573 67.4188 171.039 67.6322C170.527 67.8455 169.983 67.9522 169.407 67.9522Z" fill="#F3EFF5" />
    <path d="M186.209 90.8642V82.3202H188.225C188.417 81.9788 188.587 81.5628 188.737 81.0722C188.907 80.5602 189.057 80.0055 189.185 79.4082C189.313 78.7895 189.409 78.1495 189.473 77.4882C189.537 76.8055 189.569 76.1442 189.569 75.5042V70.3202H203.009V82.3202H205.409V90.8642H201.665V86.0002H189.953V90.8642H186.209ZM193.537 75.8562C193.537 77.0082 193.441 78.1388 193.249 79.2482C193.057 80.3575 192.779 81.3815 192.417 82.3202H199.009V74.0002H193.537V75.8562Z" fill="#F3EFF5" />
    <path d="M215.529 69.8082C216.745 69.8082 217.854 70.0215 218.857 70.4482C219.881 70.8535 220.755 71.4295 221.481 72.1762C222.227 72.9015 222.803 73.7762 223.209 74.8002C223.635 75.8242 223.849 76.9442 223.849 78.1602C223.849 79.3762 223.635 80.4962 223.209 81.5202C222.803 82.5442 222.227 83.4295 221.481 84.1762C220.755 84.9015 219.881 85.4775 218.857 85.9042C217.854 86.3095 216.745 86.5122 215.529 86.5122C214.313 86.5122 213.193 86.3095 212.169 85.9042C211.166 85.4775 210.291 84.9015 209.545 84.1762C208.819 83.4295 208.243 82.5442 207.817 81.5202C207.411 80.4962 207.209 79.3762 207.209 78.1602C207.209 76.9442 207.411 75.8242 207.817 74.8002C208.243 73.7762 208.819 72.9015 209.545 72.1762C210.291 71.4295 211.166 70.8535 212.169 70.4482C213.193 70.0215 214.313 69.8082 215.529 69.8082ZM215.529 82.6402C216.062 82.6402 216.574 82.5442 217.065 82.3522C217.577 82.1388 218.025 81.8402 218.409 81.4562C218.793 81.0722 219.091 80.6028 219.305 80.0482C219.539 79.4935 219.657 78.8642 219.657 78.1602C219.657 77.4562 219.539 76.8268 219.305 76.2722C219.091 75.7175 218.793 75.2482 218.409 74.8642C218.025 74.4802 217.577 74.1922 217.065 74.0002C216.574 73.7868 216.062 73.6802 215.529 73.6802C214.974 73.6802 214.451 73.7868 213.961 74.0002C213.47 74.1922 213.033 74.4802 212.649 74.8642C212.265 75.2482 211.955 75.7175 211.721 76.2722C211.507 76.8268 211.401 77.4562 211.401 78.1602C211.401 78.8642 211.507 79.4935 211.721 80.0482C211.955 80.6028 212.265 81.0722 212.649 81.4562C213.033 81.8402 213.47 82.1388 213.961 82.3522C214.451 82.5442 214.974 82.6402 215.529 82.6402Z" fill="#F3EFF5" />
    <path d="M233.573 70.3202H248.069V86.0002H243.877V74.1922H237.765V86.0002H233.573V70.3202Z" fill="#F3EFF5" />
    <path d="M266.359 82.2242C265.633 83.5042 264.652 84.5388 263.415 85.3282C262.199 86.1175 260.705 86.5122 258.935 86.5122C257.74 86.5122 256.631 86.3095 255.607 85.9042C254.604 85.4775 253.729 84.8908 252.983 84.1442C252.236 83.3975 251.649 82.5228 251.223 81.5202C250.817 80.4962 250.615 79.3762 250.615 78.1602C250.615 77.0295 250.817 75.9628 251.223 74.9602C251.628 73.9362 252.193 73.0508 252.919 72.3042C253.644 71.5362 254.497 70.9282 255.479 70.4802C256.481 70.0322 257.58 69.8082 258.775 69.8082C260.033 69.8082 261.153 70.0215 262.135 70.4482C263.116 70.8535 263.937 71.4295 264.599 72.1762C265.26 72.9015 265.761 73.7655 266.103 74.7682C266.444 75.7708 266.615 76.8588 266.615 78.0322C266.615 78.1815 266.615 78.3095 266.615 78.4162C266.593 78.5442 266.583 78.6615 266.583 78.7682C266.561 78.8748 266.551 78.9922 266.551 79.1202H254.743C254.828 79.7602 254.999 80.3148 255.255 80.7842C255.532 81.2322 255.863 81.6162 256.247 81.9362C256.652 82.2348 257.089 82.4588 257.559 82.6082C258.028 82.7362 258.508 82.8002 258.999 82.8002C259.959 82.8002 260.748 82.5868 261.367 82.1602C262.007 81.7122 262.508 81.1575 262.871 80.4962L266.359 82.2242ZM262.551 76.1442C262.529 75.8668 262.433 75.5575 262.263 75.2162C262.113 74.8748 261.879 74.5548 261.559 74.2562C261.26 73.9575 260.876 73.7122 260.407 73.5202C259.959 73.3282 259.415 73.2322 258.775 73.2322C257.879 73.2322 257.089 73.4882 256.407 74.0002C255.724 74.5122 255.244 75.2268 254.967 76.1442H262.551Z" fill="#F3EFF5" />
    <path d="M269.164 70.3202H273.1V72.2082H273.356C273.74 71.5468 274.337 70.9815 275.148 70.5122C275.959 70.0428 276.961 69.8082 278.156 69.8082C279.159 69.8082 280.108 70.0215 281.004 70.4482C281.921 70.8535 282.721 71.4295 283.404 72.1762C284.108 72.9015 284.663 73.7762 285.068 74.8002C285.473 75.8242 285.676 76.9442 285.676 78.1602C285.676 79.3762 285.473 80.4962 285.068 81.5202C284.663 82.5442 284.108 83.4295 283.404 84.1762C282.721 84.9015 281.921 85.4775 281.004 85.9042C280.108 86.3095 279.159 86.5122 278.156 86.5122C276.961 86.5122 275.959 86.2775 275.148 85.8082C274.337 85.3388 273.74 84.7735 273.356 84.1122H273.1L273.356 86.3522V92.9122H269.164V70.3202ZM277.292 82.6402C277.847 82.6402 278.369 82.5335 278.86 82.3202C279.372 82.1068 279.82 81.8082 280.204 81.4242C280.588 81.0402 280.897 80.5708 281.132 80.0162C281.367 79.4615 281.484 78.8428 281.484 78.1602C281.484 77.4775 281.367 76.8588 281.132 76.3042C280.897 75.7495 280.588 75.2802 280.204 74.8962C279.82 74.5122 279.372 74.2135 278.86 74.0002C278.369 73.7868 277.847 73.6802 277.292 73.6802C276.737 73.6802 276.204 73.7868 275.692 74.0002C275.201 74.1922 274.764 74.4802 274.38 74.8642C273.996 75.2482 273.687 75.7175 273.452 76.2722C273.217 76.8268 273.1 77.4562 273.1 78.1602C273.1 78.8642 273.217 79.4935 273.452 80.0482C273.687 80.6028 273.996 81.0722 274.38 81.4562C274.764 81.8402 275.201 82.1388 275.692 82.3522C276.204 82.5442 276.737 82.6402 277.292 82.6402Z" fill="#F3EFF5" />
    <path d="M303.203 82.2242C302.477 83.5042 301.496 84.5388 300.259 85.3282C299.043 86.1175 297.549 86.5122 295.779 86.5122C294.584 86.5122 293.475 86.3095 292.451 85.9042C291.448 85.4775 290.573 84.8908 289.827 84.1442C289.08 83.3975 288.493 82.5228 288.067 81.5202C287.661 80.4962 287.459 79.3762 287.459 78.1602C287.459 77.0295 287.661 75.9628 288.067 74.9602C288.472 73.9362 289.037 73.0508 289.763 72.3042C290.488 71.5362 291.341 70.9282 292.323 70.4802C293.325 70.0322 294.424 69.8082 295.619 69.8082C296.877 69.8082 297.997 70.0215 298.979 70.4482C299.96 70.8535 300.781 71.4295 301.443 72.1762C302.104 72.9015 302.605 73.7655 302.947 74.7682C303.288 75.7708 303.459 76.8588 303.459 78.0322C303.459 78.1815 303.459 78.3095 303.459 78.4162C303.437 78.5442 303.427 78.6615 303.427 78.7682C303.405 78.8748 303.395 78.9922 303.395 79.1202H291.587C291.672 79.7602 291.843 80.3148 292.099 80.7842C292.376 81.2322 292.707 81.6162 293.091 81.9362C293.496 82.2348 293.933 82.4588 294.403 82.6082C294.872 82.7362 295.352 82.8002 295.843 82.8002C296.803 82.8002 297.592 82.5868 298.211 82.1602C298.851 81.7122 299.352 81.1575 299.715 80.4962L303.203 82.2242ZM299.395 76.1442C299.373 75.8668 299.277 75.5575 299.107 75.2162C298.957 74.8748 298.723 74.5548 298.403 74.2562C298.104 73.9575 297.72 73.7122 297.251 73.5202C296.803 73.3282 296.259 73.2322 295.619 73.2322C294.723 73.2322 293.933 73.4882 293.251 74.0002C292.568 74.5122 292.088 75.2268 291.811 76.1442H299.395Z" fill="#F3EFF5" />
    <path d="M310.584 78.5122H310.328V86.0002H306.136V70.3202H310.328V77.0082H310.584L315.64 70.3202H320.568V70.5762L314.968 77.7122L320.92 85.7442V86.0002H315.992L310.584 78.5122Z" fill="#F3EFF5" />
    <path d="M331.925 84.3362H331.669C331.178 84.9335 330.581 85.4455 329.877 85.8722C329.194 86.2988 328.309 86.5122 327.221 86.5122C326.41 86.5122 325.642 86.3735 324.917 86.0962C324.213 85.8402 323.594 85.4775 323.061 85.0082C322.527 84.5388 322.111 83.9735 321.813 83.3122C321.514 82.6508 321.365 81.9255 321.365 81.1362C321.365 80.3255 321.525 79.6002 321.845 78.9602C322.165 78.2988 322.613 77.7335 323.189 77.2642C323.765 76.7948 324.437 76.4428 325.205 76.2082C325.994 75.9522 326.847 75.8242 327.765 75.8242C328.789 75.8242 329.631 75.9095 330.293 76.0802C330.954 76.2295 331.498 76.3895 331.925 76.5602V76.0802C331.925 75.2482 331.594 74.5655 330.933 74.0322C330.271 73.4775 329.45 73.2002 328.469 73.2002C327.018 73.2002 325.791 73.8082 324.789 75.0242L321.749 72.9442C323.413 70.8535 325.685 69.8082 328.565 69.8082C330.997 69.8082 332.853 70.3842 334.133 71.5362C335.413 72.6668 336.053 74.3522 336.053 76.5922V86.0002H331.925V84.3362ZM331.925 79.6322C331.434 79.3975 330.922 79.2162 330.389 79.0882C329.877 78.9388 329.311 78.8642 328.693 78.8642C327.69 78.8642 326.911 79.0882 326.357 79.5362C325.823 79.9628 325.557 80.4962 325.557 81.1362C325.557 81.7762 325.813 82.2882 326.325 82.6722C326.858 83.0562 327.466 83.2482 328.149 83.2482C328.703 83.2482 329.215 83.1522 329.685 82.9602C330.154 82.7468 330.549 82.4802 330.869 82.1602C331.21 81.8188 331.466 81.4348 331.637 81.0082C331.829 80.5602 331.925 80.1015 331.925 79.6322Z" fill="#F3EFF5" />
</svg>
