<svg width="191" height="41" viewBox="0 0 191 41" fill="none" xmlns="http://www.w3.org/2000/svg">
    <path d="M8.6559 38.2271V40H0V38.2271L2.3441 36.7444V3.13116L0.111624 1.64852V0H8.32103C10.3506 0 11.1116 0.508035 11.619 2.67496C13.679 13.9347 14.917 21.4515 16.2362 32.5972H16.3478L21.31 2.52981C21.7565 0.456195 22.4871 0.0207358 24.6079 0.0725762C27.7841 0.0725762 29.5194 0.0725762 32.726 0.0725762V1.7211L30.5443 3.20373V36.6304L33 38.3411V40H22.3247V38.3411L24.7804 36.6304V9.78745L24.953 4.07465H24.7297L18.5397 39.4298H13.9022C13.6732 39.4632 13.4399 39.4475 13.2172 39.3837C12.9945 39.3199 12.7873 39.2093 12.6087 39.0591C12.4302 38.9088 12.2842 38.7222 12.1802 38.5111C12.0762 38.3 12.0164 38.0691 12.0046 37.8331C10.1679 26.4282 8.38192 15.7491 6.31181 4.4479H6.02768L6.31181 11.8611V36.7444L8.6559 38.2271Z" fill="#F3EFF5" />
    <circle cx="54" cy="20" r="5" fill="#F6AE2D" />
    <path d="M88.8359 26.5789C88.8359 26.8947 88.8359 27.1404 88.8359 27.3158C88.8751 27.4912 88.8947 27.6667 88.8947 27.8421C88.8947 33.2105 87.678 35.8947 85.2444 35.8947C83.5174 35.8947 82.4773 34.4561 82.124 31.5789C82.0455 30.7719 81.967 30.0175 81.8885 29.3158C81.8492 28.614 81.81 27.8421 81.7707 27C81.7315 26.1579 81.6922 25.193 81.653 24.1053C81.653 23.0175 81.653 21.6842 81.653 20.1053C81.653 18.9123 81.653 17.8772 81.653 17C81.653 16.0877 81.6726 15.2632 81.7119 14.5263C81.7511 13.7895 81.7707 13.0877 81.7707 12.4211C81.81 11.7193 81.8689 10.9825 81.9474 10.2105C82.1829 7.4386 83.1445 6.05263 84.8323 6.05263C86.0098 6.05263 86.9322 6.75439 87.5995 8.15789C88.306 9.52632 88.6592 11.4211 88.6592 13.8421V14.2105H93.8403V1.63158H90.5L90.059 3.30286C90.0242 3.43456 89.9051 3.52631 89.7689 3.52631H88.6592C88.5858 3.52631 88.5173 3.48883 88.4761 3.42799C87.3806 1.80933 85.8323 1 83.8314 1C77.9438 1 75 7.92982 75 21.7895C75 34.5965 78.3952 41 85.1856 41C88.0116 41 90.19 39.8947 91.7208 37.6842C93.2908 35.4386 94.1347 32.1754 94.2525 27.8947L88.8359 26.5789Z" fill="#F3EFF5" />
    <path d="M115.521 35.8947V20.8947C115.521 19.5965 115.423 18.5789 115.227 17.8421C115.07 17.1053 114.717 16.386 114.167 15.6842C113.5 14.7719 112.578 14.0526 111.4 13.5263C110.223 13 108.927 12.7368 107.514 12.7368C105.355 12.7368 103.55 13.3158 102.098 14.4737C100.685 15.5965 99.7819 17.1579 99.3894 19.1579L104.394 20.4211C104.59 18.0351 105.571 16.8421 107.338 16.8421C108.358 16.8421 109.065 17.1754 109.457 17.8421C109.889 18.4737 110.105 19.5614 110.105 21.1053V25.7368C108.849 24.4737 107.416 23.8421 105.807 23.8421C103.609 23.8421 101.862 24.614 100.567 26.1579C99.2716 27.6667 98.624 29.7368 98.624 32.3684C98.624 33.5965 98.781 34.7193 99.095 35.7368C99.409 36.7544 99.8408 37.6316 100.39 38.3684C100.979 39.1053 101.646 39.6842 102.392 40.1053C103.177 40.4912 104.041 40.6842 104.983 40.6842C107.063 40.6842 108.731 39.807 109.987 38.0526H110.105V40.3684H117.876L115.521 35.8947ZM110.105 35.0526C109.634 35.5439 109.202 35.9123 108.81 36.1579C108.417 36.3684 107.966 36.4737 107.455 36.4737C106.474 36.4737 105.728 36.1053 105.218 35.3684C104.708 34.6316 104.453 33.5789 104.453 32.2105C104.453 30.807 104.708 29.7368 105.218 29C105.728 28.2281 106.494 27.8421 107.514 27.8421C108.417 27.8421 109.281 28.2632 110.105 29.1053V35.0526Z" fill="#F3EFF5" />
    <path d="M120.761 40.3684L125.707 38.3684H125.825C126.453 39.2456 127.041 39.8597 127.591 40.2105C128.18 40.5263 128.906 40.6842 129.769 40.6842C130.594 40.6842 131.339 40.5088 132.007 40.1579C132.713 39.7719 133.322 39.2632 133.832 38.6316C134.342 38 134.735 37.2632 135.009 36.4211C135.323 35.5439 135.48 34.5965 135.48 33.5789C135.48 31.9649 135.166 30.5439 134.538 29.3158C134.107 28.4737 133.518 27.7018 132.772 27C132.026 26.2982 130.967 25.4912 129.593 24.5789C128.18 23.6667 127.218 22.8597 126.708 22.1579C126.198 21.4561 125.942 20.5965 125.942 19.5789C125.942 17.9298 126.512 17.1053 127.65 17.1053C128.003 17.1053 128.572 17.3684 129.357 17.8947C130.182 18.4211 130.986 19.0175 131.771 19.6842C132.556 20.3158 133.243 20.8947 133.832 21.4211C134.46 21.9474 134.774 22.2105 134.774 22.2105V13.3684L129.769 15.3684H129.652C128.67 13.8246 127.395 13.0526 125.825 13.0526C125.04 13.0526 124.314 13.2456 123.646 13.6316C123.018 13.9825 122.469 14.4737 121.998 15.1053C121.527 15.7368 121.154 16.4912 120.879 17.3684C120.604 18.2105 120.467 19.1228 120.467 20.1053C120.467 21.7544 120.86 23.2105 121.645 24.4737C122.43 25.7368 123.784 27.0351 125.707 28.3684C126.61 29 127.336 29.5439 127.885 30C128.474 30.4561 128.926 30.8947 129.24 31.3158C129.554 31.7018 129.75 32.1228 129.828 32.5789C129.946 33 130.005 33.4912 130.005 34.0526C130.005 35.6316 129.377 36.4211 128.121 36.4211C127.728 36.4211 127.12 36.1404 126.296 35.5789C125.471 35.0175 124.647 34.4035 123.823 33.7368C122.999 33.0702 122.273 32.4561 121.645 31.8947C121.056 31.3333 120.761 31.0526 120.761 31.0526V40.3684Z" fill="#F3EFF5" />
    <path d="M139.041 40.3684H148.343L146.577 35.8947V13.3684H138.982L141.161 17.8421V35.8947L139.041 40.3684ZM140.277 4.15789C140.277 5 140.611 5.73684 141.278 6.36842C141.946 6.96491 142.77 7.26316 143.751 7.26316C144.693 7.26316 145.498 6.96491 146.165 6.36842C146.832 5.73684 147.166 5 147.166 4.15789C147.166 3.2807 146.832 2.54386 146.165 1.94737C145.498 1.35088 144.693 1.05263 143.751 1.05263C142.77 1.05263 141.946 1.35088 141.278 1.94737C140.611 2.54386 140.277 3.2807 140.277 4.15789Z" fill="#F3EFF5" />
    <path d="M151.449 40.3684H161.694L159.28 35.8947V19.4737C160.025 18.1754 160.909 17.5263 161.929 17.5263C162.596 17.5263 163.048 17.7368 163.283 18.1579C163.558 18.5789 163.695 19.3509 163.695 20.4737V40.3684H171.408L169.112 35.8947V20.7368C169.112 19.4386 169.033 18.4035 168.876 17.6316C168.759 16.8596 168.543 16.1579 168.229 15.5263C167.836 14.7193 167.248 14.1053 166.463 13.6842C165.677 13.2632 164.775 13.0526 163.754 13.0526C162.969 13.0526 162.204 13.2632 161.458 13.6842C160.673 14.1404 159.986 14.7544 159.397 15.5263H159.28V13.3684H151.508L153.863 17.8421V35.8947L151.449 40.3684Z" fill="#F3EFF5" />
    <path d="M174.75 26.1579C174.711 26.2982 174.691 26.5088 174.691 26.7895C174.691 31.6316 175.359 35.2105 176.693 37.5263C178.028 39.8421 180.088 41 182.875 41C185.662 41 187.703 39.8596 188.998 37.5789C190.333 35.2632 191 31.7018 191 26.8947C191 22.0877 190.333 18.5263 188.998 16.2105C187.703 13.8947 185.662 12.7368 182.875 12.7368C180.167 12.7368 178.145 13.8421 176.811 16.0526C175.476 18.2281 174.789 21.5965 174.75 26.1579ZM180.402 26.1579C180.402 24.4386 180.442 23.0175 180.52 21.8947C180.599 20.7368 180.736 19.8246 180.932 19.1579C181.128 18.4561 181.384 17.9649 181.698 17.6842C182.012 17.4035 182.404 17.2632 182.875 17.2632C183.346 17.2632 183.739 17.4035 184.053 17.6842C184.406 17.9649 184.661 18.4737 184.818 19.2105C185.014 19.9123 185.152 20.8772 185.23 22.1053C185.309 23.3333 185.348 24.8947 185.348 26.7895C185.348 28.7193 185.309 30.3158 185.23 31.5789C185.152 32.807 185.014 33.7895 184.818 34.5263C184.661 35.2632 184.406 35.7719 184.053 36.0526C183.739 36.3333 183.346 36.4737 182.875 36.4737C182.012 36.4737 181.423 36.0526 181.109 35.2105C180.873 34.614 180.697 33.614 180.579 32.2105C180.461 30.807 180.402 28.7895 180.402 26.1579Z" fill="#F3EFF5" />
</svg>
