<svg width="408" height="174" viewBox="0 0 408 174" fill="none" xmlns="http://www.w3.org/2000/svg">
    <path d="M0 25.6C0 16.6392 0 12.1587 1.7439 8.73615C3.27787 5.72556 5.72556 3.27787 8.73615 1.7439C12.1587 0 16.6392 0 25.6 0H382.4C391.361 0 395.841 0 399.264 1.7439C402.274 3.27787 404.722 5.72556 406.256 8.73615C408 12.1587 408 16.6392 408 25.6V167.439C408 169.544 408 170.596 407.567 171.142C407.191 171.617 406.62 171.895 406.014 171.899C405.318 171.904 404.488 171.257 402.83 169.961L382.946 154.427C380.371 152.414 379.083 151.408 377.655 150.693C376.388 150.059 375.042 149.596 373.653 149.316C372.088 149 370.454 149 367.186 149H25.6C16.6392 149 12.1587 149 8.73615 147.256C5.72556 145.722 3.27787 143.274 1.7439 140.264C0 136.841 0 132.361 0 123.4V25.6Z" fill="#23124E" />
    <path d="M69.0742 85.9999V67.1839H62.6742V63.0879H79.7942V67.1839H73.3942V85.9999H69.0742Z" fill="#F3EFF5" />
    <path d="M83.0539 63.0879H92.0139C92.9953 63.0879 93.9126 63.2479 94.7659 63.5679C95.6193 63.8666 96.3553 64.2932 96.9739 64.8479C97.6139 65.3812 98.1153 66.0106 98.4779 66.7359C98.8406 67.4612 99.0219 68.2399 99.0219 69.0719C99.0219 70.2879 98.7233 71.3119 98.1259 72.1439C97.5499 72.9546 96.8246 73.5732 95.9499 73.9999V74.2559C97.1233 74.6826 98.0619 75.3546 98.7659 76.2719C99.4913 77.1679 99.8539 78.2879 99.8539 79.6319C99.8539 80.6132 99.6513 81.4986 99.2459 82.2879C98.8619 83.0559 98.3286 83.7172 97.6459 84.2719C96.9633 84.8266 96.1633 85.2532 95.2459 85.5519C94.3499 85.8506 93.3793 85.9999 92.3339 85.9999H83.0539V63.0879ZM91.6939 72.4319C92.6966 72.4319 93.4646 72.1652 93.9979 71.6319C94.5526 71.0772 94.8299 70.4266 94.8299 69.6799C94.8299 68.9332 94.5633 68.2932 94.0299 67.7599C93.4966 67.2266 92.7606 66.9599 91.8219 66.9599H87.3739V72.4319H91.6939ZM92.1739 82.0319C93.2619 82.0319 94.0939 81.7652 94.6699 81.2319C95.2459 80.6772 95.5339 79.9732 95.5339 79.1199C95.5339 78.2666 95.2353 77.5626 94.6379 77.0079C94.0619 76.4319 93.1979 76.1439 92.0459 76.1439H87.3739V82.0319H92.1739Z" fill="#F3EFF5" />
    <path d="M121.451 85.9999H117.163V74.7679L117.419 70.3519H117.163L108.043 85.9999H103.179V63.0879H107.435V74.6079L107.179 79.0239H107.435L116.747 63.0879H121.451V85.9999Z" fill="#F3EFF5" />
    <path d="M144.326 85.9999H140.038V74.7679L140.294 70.3519H140.038L130.918 85.9999H126.054V63.0879H130.31V74.6079L130.054 79.0239H130.31L139.622 63.0879H144.326V85.9999Z" fill="#F3EFF5" />
    <path d="M167.201 85.9999H162.913V74.7679L163.169 70.3519H162.913L153.793 85.9999H148.929V63.0879H153.185V74.6079L152.929 79.0239H153.185L162.497 63.0879H167.201V85.9999Z" fill="#F3EFF5" />
    <path d="M190.076 85.9999H185.788V74.7679L186.044 70.3519H185.788L176.668 85.9999H171.804V63.0879H176.06V74.6079L175.804 79.0239H176.06L185.372 63.0879H190.076V85.9999Z" fill="#F3EFF5" />
    <path d="M194.679 63.0879H198.999V72.2399H208.631V63.0879H212.951V85.9999H208.631V76.3359H198.999V85.9999H194.679V63.0879Z" fill="#F3EFF5" />
    <path d="M235.826 85.9999H231.538V74.7679L231.794 70.3519H231.538L222.418 85.9999H217.554V63.0879H221.81V74.6079L221.554 79.0239H221.81L231.122 63.0879H235.826V85.9999Z" fill="#F3EFF5" />
    <path d="M258.701 85.9999H254.413V74.7679L254.669 70.3519H254.413L245.293 85.9999H240.429V63.0879H244.685V74.6079L244.429 79.0239H244.685L253.997 63.0879H258.701V85.9999Z" fill="#F3EFF5" />
    <path d="M281.576 85.9999H277.288V74.7679L277.544 70.3519H277.288L268.168 85.9999H263.304V63.0879H267.56V74.6079L267.304 79.0239H267.56L276.872 63.0879H281.576V85.9999Z" fill="#F3EFF5" />
    <path d="M304.451 85.9999H300.163V74.7679L300.419 70.3519H300.163L291.043 85.9999H286.179V63.0879H290.435V74.6079L290.179 79.0239H290.435L299.747 63.0879H304.451V85.9999Z" fill="#F3EFF5" />
    <path d="M311.07 86.1919C310.302 86.1919 309.641 85.9252 309.086 85.3919C308.553 84.8372 308.286 84.1759 308.286 83.4079C308.286 82.6399 308.553 81.9892 309.086 81.4559C309.641 80.9226 310.302 80.6559 311.07 80.6559C311.838 80.6559 312.489 80.9226 313.022 81.4559C313.555 81.9892 313.822 82.6399 313.822 83.4079C313.822 84.1759 313.555 84.8372 313.022 85.3919C312.489 85.9252 311.838 86.1919 311.07 86.1919ZM308.894 69.6799V63.0879H313.214V69.6799L312.766 78.1279H309.342L308.894 69.6799Z" fill="#F3EFF5" />
    <path d="M319.664 86.1919C318.896 86.1919 318.234 85.9252 317.68 85.3919C317.146 84.8372 316.88 84.1759 316.88 83.4079C316.88 82.6399 317.146 81.9892 317.68 81.4559C318.234 80.9226 318.896 80.6559 319.664 80.6559C320.432 80.6559 321.082 80.9226 321.616 81.4559C322.149 81.9892 322.416 82.6399 322.416 83.4079C322.416 84.1759 322.149 84.8372 321.616 85.3919C321.082 85.9252 320.432 86.1919 319.664 86.1919ZM317.488 69.6799V63.0879H321.808V69.6799L321.36 78.1279H317.936L317.488 69.6799Z" fill="#F3EFF5" />
    <path d="M330.625 85.9999V69.0399L326.753 70.6719L325.217 67.1199L331.649 64.1119H334.817V85.9999H330.625Z" fill="#F3EFF5" />
    <path d="M341.82 86.1919C341.052 86.1919 340.391 85.9252 339.836 85.3919C339.303 84.8372 339.036 84.1759 339.036 83.4079C339.036 82.6399 339.303 81.9892 339.836 81.4559C340.391 80.9226 341.052 80.6559 341.82 80.6559C342.588 80.6559 343.239 80.9226 343.772 81.4559C344.305 81.9892 344.572 82.6399 344.572 83.4079C344.572 84.1759 344.305 84.8372 343.772 85.3919C343.239 85.9252 342.588 86.1919 341.82 86.1919ZM339.644 69.6799V63.0879H343.964V69.6799L343.516 78.1279H340.092L339.644 69.6799Z" fill="#F3EFF5" />
</svg>
