<svg width="408" height="174" viewBox="0 0 408 174" fill="none" xmlns="http://www.w3.org/2000/svg">
    <path d="M0 25.6C0 16.6392 0 12.1587 1.7439 8.73615C3.27787 5.72556 5.72556 3.27787 8.73615 1.7439C12.1587 0 16.6392 0 25.6 0H382.4C391.361 0 395.841 0 399.264 1.7439C402.274 3.27787 404.722 5.72556 406.256 8.73615C408 12.1587 408 16.6392 408 25.6V167.439C408 169.544 408 170.596 407.567 171.142C407.191 171.617 406.62 171.895 406.014 171.899C405.318 171.904 404.488 171.257 402.83 169.961L382.946 154.427C380.371 152.414 379.083 151.408 377.655 150.693C376.388 150.059 375.042 149.596 373.653 149.316C372.088 149 370.454 149 367.186 149H25.6C16.6392 149 12.1587 149 8.73615 147.256C5.72556 145.722 3.27787 143.274 1.7439 140.264C0 136.841 0 132.361 0 123.4V25.6Z" fill="#23124E" />
    <path d="M69.8371 63.3442L60.9731 74.6402L70.4131 85.7442V86.0002H64.9731L56.3331 75.7922H56.0771V86.0002H51.7571V63.0882H56.0771V73.8402H56.3331L64.5251 63.0882H69.8371V63.3442Z" fill="#F3EFF5" />
    <path d="M70.5648 70.3202H84.4208V74.1922H79.5888V86.0002H75.3968V74.1922H70.5648V70.3202Z" fill="#F3EFF5" />
    <path d="M93.3253 69.8082C94.5413 69.8082 95.6507 70.0215 96.6533 70.4482C97.6773 70.8535 98.552 71.4295 99.2773 72.1762C100.024 72.9015 100.6 73.7762 101.005 74.8002C101.432 75.8242 101.645 76.9442 101.645 78.1602C101.645 79.3762 101.432 80.4962 101.005 81.5202C100.6 82.5442 100.024 83.4295 99.2773 84.1762C98.552 84.9015 97.6773 85.4775 96.6533 85.9042C95.6507 86.3095 94.5413 86.5122 93.3253 86.5122C92.1093 86.5122 90.9893 86.3095 89.9653 85.9042C88.9627 85.4775 88.088 84.9015 87.3413 84.1762C86.616 83.4295 86.04 82.5442 85.6133 81.5202C85.208 80.4962 85.0053 79.3762 85.0053 78.1602C85.0053 76.9442 85.208 75.8242 85.6133 74.8002C86.04 73.7762 86.616 72.9015 87.3413 72.1762C88.088 71.4295 88.9627 70.8535 89.9653 70.4482C90.9893 70.0215 92.1093 69.8082 93.3253 69.8082ZM93.3253 82.6402C93.8587 82.6402 94.3707 82.5442 94.8613 82.3522C95.3733 82.1388 95.8213 81.8402 96.2053 81.4562C96.5893 81.0722 96.888 80.6028 97.1013 80.0482C97.336 79.4935 97.4533 78.8642 97.4533 78.1602C97.4533 77.4562 97.336 76.8268 97.1013 76.2722C96.888 75.7175 96.5893 75.2482 96.2053 74.8642C95.8213 74.4802 95.3733 74.1922 94.8613 74.0002C94.3707 73.7868 93.8587 73.6802 93.3253 73.6802C92.7707 73.6802 92.248 73.7868 91.7573 74.0002C91.2667 74.1922 90.8293 74.4802 90.4453 74.8642C90.0613 75.2482 89.752 75.7175 89.5173 76.2722C89.304 76.8268 89.1973 77.4562 89.1973 78.1602C89.1973 78.8642 89.304 79.4935 89.5173 80.0482C89.752 80.6028 90.0613 81.0722 90.4453 81.4562C90.8293 81.8402 91.2667 82.1388 91.7573 82.3522C92.248 82.5442 92.7707 82.6402 93.3253 82.6402Z" fill="#F3EFF5" />
    <path d="M122.09 86.0002V79.9522H115.562V86.0002H111.37V70.3202H115.562V76.0802H122.09V70.3202H126.282V86.0002H122.09Z" fill="#F3EFF5" />
    <path d="M144.562 82.2242C143.836 83.5042 142.855 84.5388 141.618 85.3282C140.402 86.1175 138.909 86.5122 137.138 86.5122C135.943 86.5122 134.834 86.3095 133.81 85.9042C132.807 85.4775 131.932 84.8908 131.186 84.1442C130.439 83.3975 129.852 82.5228 129.426 81.5202C129.02 80.4962 128.818 79.3762 128.818 78.1602C128.818 77.0295 129.02 75.9628 129.426 74.9602C129.831 73.9362 130.396 73.0508 131.122 72.3042C131.847 71.5362 132.701 70.9282 133.682 70.4802C134.685 70.0322 135.783 69.8082 136.978 69.8082C138.236 69.8082 139.356 70.0215 140.338 70.4482C141.319 70.8535 142.141 71.4295 142.802 72.1762C143.463 72.9015 143.965 73.7655 144.306 74.7682C144.647 75.7708 144.818 76.8588 144.818 78.0322C144.818 78.1815 144.818 78.3095 144.818 78.4162C144.797 78.5442 144.786 78.6615 144.786 78.7682C144.764 78.8748 144.754 78.9922 144.754 79.1202H132.946C133.031 79.7602 133.202 80.3148 133.458 80.7842C133.735 81.2322 134.066 81.6162 134.45 81.9362C134.855 82.2348 135.293 82.4588 135.762 82.6082C136.231 82.7362 136.711 82.8002 137.202 82.8002C138.162 82.8002 138.951 82.5868 139.57 82.1602C140.21 81.7122 140.711 81.1575 141.074 80.4962L144.562 82.2242ZM140.754 76.1442C140.732 75.8668 140.636 75.5575 140.466 75.2162C140.316 74.8748 140.082 74.5548 139.762 74.2562C139.463 73.9575 139.079 73.7122 138.61 73.5202C138.162 73.3282 137.618 73.2322 136.978 73.2322C136.082 73.2322 135.292 73.4882 134.61 74.0002C133.927 74.5122 133.447 75.2268 133.17 76.1442H140.754Z" fill="#F3EFF5" />
    <path d="M169.406 82.0002C168.724 83.3228 167.764 84.4108 166.526 85.2642C165.31 86.0962 163.785 86.5122 161.95 86.5122C160.734 86.5122 159.614 86.3095 158.59 85.9042C157.588 85.4775 156.713 84.8908 155.966 84.1442C155.241 83.3975 154.665 82.5228 154.238 81.5202C153.833 80.4962 153.63 79.3762 153.63 78.1602C153.63 76.9442 153.833 75.8242 154.238 74.8002C154.665 73.7762 155.241 72.9015 155.966 72.1762C156.713 71.4295 157.588 70.8535 158.59 70.4482C159.614 70.0215 160.734 69.8082 161.95 69.8082C163.764 69.8082 165.289 70.2242 166.526 71.0562C167.764 71.8882 168.67 72.9655 169.246 74.2882L165.406 75.8882C165.044 75.1628 164.574 74.6188 163.998 74.2562C163.444 73.8722 162.74 73.6802 161.886 73.6802C161.332 73.6802 160.809 73.7868 160.318 74.0002C159.828 74.2135 159.39 74.5122 159.006 74.8962C158.644 75.2802 158.356 75.7495 158.142 76.3042C157.929 76.8588 157.822 77.4775 157.822 78.1602C157.822 78.8428 157.929 79.4615 158.142 80.0162C158.356 80.5708 158.644 81.0402 159.006 81.4242C159.39 81.8082 159.828 82.1068 160.318 82.3202C160.809 82.5335 161.332 82.6402 161.886 82.6402C162.761 82.6402 163.497 82.4482 164.094 82.0642C164.713 81.6588 165.204 81.0828 165.566 80.3362L169.406 82.0002Z" fill="#F3EFF5" />
    <path d="M186.46 86.0002V79.6002L186.716 76.5282H186.46L182.62 83.9522H179.676L175.836 76.5282H175.58L175.836 79.6002V86.0002H171.836V70.3202H176.828L181.02 78.5442H181.276L185.468 70.3202H190.46V86.0002H186.46Z" fill="#F3EFF5" />
    <path d="M209.741 86.0002V70.3202H213.709V86.0002H209.741ZM193.901 86.0002V70.3202H197.869V75.4082H201.997C202.829 75.4082 203.597 75.5362 204.301 75.7922C205.027 76.0268 205.645 76.3682 206.157 76.8162C206.691 77.2642 207.107 77.8188 207.405 78.4802C207.725 79.1202 207.885 79.8562 207.885 80.6882C207.885 81.5202 207.725 82.2668 207.405 82.9282C207.107 83.5682 206.691 84.1228 206.157 84.5922C205.645 85.0402 205.027 85.3922 204.301 85.6482C203.597 85.8828 202.829 86.0002 201.997 86.0002H193.901ZM201.837 82.7042C202.456 82.7042 202.979 82.5335 203.405 82.1922C203.832 81.8295 204.045 81.3282 204.045 80.6882C204.045 80.0695 203.832 79.5788 203.405 79.2162C202.979 78.8535 202.456 78.6722 201.837 78.6722H197.869V82.7042H201.837Z" fill="#F3EFF5" />
    <path d="M218.435 86.2562C218.094 86.2562 217.752 86.2348 217.411 86.1922C217.07 86.1495 216.782 86.0855 216.547 86.0002V82.3202C216.76 82.3842 216.942 82.4268 217.091 82.4482C217.262 82.4695 217.422 82.4802 217.571 82.4802C217.891 82.4802 218.168 82.4055 218.403 82.2562C218.638 82.0855 218.819 81.8188 218.947 81.4562C219.096 81.0722 219.203 80.5815 219.267 79.9842C219.352 79.3655 219.395 78.5975 219.395 77.6802V70.3202H233.411V86.0002H229.411V74.0642H223.331V78.6082C223.331 80.0588 223.203 81.2748 222.947 82.2562C222.712 83.2375 222.371 84.0268 221.923 84.6242C221.496 85.2002 220.984 85.6162 220.387 85.8722C219.79 86.1282 219.139 86.2562 218.435 86.2562Z" fill="#F3EFF5" />
    <path d="M258.522 86.0002V79.6002L258.778 76.5282H258.522L254.682 83.9522H251.738L247.898 76.5282H247.642L247.898 79.6002V86.0002H243.898V70.3202H248.89L253.082 78.5442H253.338L257.53 70.3202H262.522V86.0002H258.522Z" fill="#F3EFF5" />
    <path d="M273.232 69.8082C274.448 69.8082 275.557 70.0215 276.56 70.4482C277.584 70.8535 278.458 71.4295 279.184 72.1762C279.93 72.9015 280.506 73.7762 280.912 74.8002C281.338 75.8242 281.552 76.9442 281.552 78.1602C281.552 79.3762 281.338 80.4962 280.912 81.5202C280.506 82.5442 279.93 83.4295 279.184 84.1762C278.458 84.9015 277.584 85.4775 276.56 85.9042C275.557 86.3095 274.448 86.5122 273.232 86.5122C272.016 86.5122 270.896 86.3095 269.872 85.9042C268.869 85.4775 267.994 84.9015 267.248 84.1762C266.522 83.4295 265.946 82.5442 265.52 81.5202C265.114 80.4962 264.912 79.3762 264.912 78.1602C264.912 76.9442 265.114 75.8242 265.52 74.8002C265.946 73.7762 266.522 72.9015 267.248 72.1762C267.994 71.4295 268.869 70.8535 269.872 70.4482C270.896 70.0215 272.016 69.8082 273.232 69.8082ZM273.232 82.6402C273.765 82.6402 274.277 82.5442 274.768 82.3522C275.28 82.1388 275.728 81.8402 276.112 81.4562C276.496 81.0722 276.794 80.6028 277.008 80.0482C277.242 79.4935 277.36 78.8642 277.36 78.1602C277.36 77.4562 277.242 76.8268 277.008 76.2722C276.794 75.7175 276.496 75.2482 276.112 74.8642C275.728 74.4802 275.28 74.1922 274.768 74.0002C274.277 73.7868 273.765 73.6802 273.232 73.6802C272.677 73.6802 272.154 73.7868 271.664 74.0002C271.173 74.1922 270.736 74.4802 270.352 74.8642C269.968 75.2482 269.658 75.7175 269.424 76.2722C269.21 76.8268 269.104 77.4562 269.104 78.1602C269.104 78.8642 269.21 79.4935 269.424 80.0482C269.658 80.6028 269.968 81.0722 270.352 81.4562C270.736 81.8402 271.173 82.1388 271.664 82.3522C272.154 82.5442 272.677 82.6402 273.232 82.6402Z" fill="#F3EFF5" />
    <path d="M290.773 77.0722C291.221 77.0722 291.669 77.0188 292.117 76.9122C292.586 76.8055 293.013 76.6455 293.397 76.4322V70.3202H297.589V86.0002H293.397V80.4002C292.906 80.5922 292.373 80.7308 291.797 80.8162C291.221 80.9015 290.613 80.9442 289.973 80.9442C289.013 80.9442 288.128 80.8055 287.317 80.5282C286.528 80.2295 285.845 79.8135 285.269 79.2802C284.693 78.7255 284.245 78.0535 283.925 77.2642C283.626 76.4748 283.477 75.5895 283.477 74.6082V70.3202H287.669V74.2882C287.669 75.2482 287.925 75.9522 288.437 76.4002C288.97 76.8482 289.749 77.0722 290.773 77.0722Z" fill="#F3EFF5" />
    <path d="M306.111 85.2322L299.519 70.3202H304.287L308.255 79.8242H308.479L312.287 70.3202H316.959L307.135 92.9122H302.623L306.111 85.2322Z" fill="#F3EFF5" />
    <path d="M323.094 78.1282V77.0722C323.094 76.5602 323.147 76.0908 323.254 75.6642C323.361 75.2162 323.521 74.7895 323.734 74.3842C323.969 73.9788 324.267 73.5735 324.63 73.1682C325.014 72.7628 325.483 72.3255 326.038 71.8562C326.614 71.3442 327.062 70.8748 327.382 70.4482C327.702 70.0215 327.862 69.4988 327.862 68.8802C327.862 68.2402 327.617 67.6748 327.126 67.1842C326.657 66.6935 326.006 66.4482 325.174 66.4482C324.726 66.4482 324.321 66.5228 323.958 66.6722C323.595 66.8215 323.275 67.0242 322.998 67.2802C322.721 67.5362 322.486 67.8242 322.294 68.1442C322.123 68.4642 321.995 68.7948 321.91 69.1362L318.23 67.6002C318.401 67.0028 318.667 66.4055 319.03 65.8082C319.414 65.2108 319.883 64.6775 320.438 64.2082C321.014 63.7175 321.686 63.3228 322.454 63.0242C323.222 62.7255 324.086 62.5762 325.046 62.5762C326.07 62.5762 327.009 62.7362 327.862 63.0562C328.715 63.3548 329.441 63.7815 330.038 64.3362C330.657 64.8695 331.137 65.5095 331.478 66.2562C331.819 67.0028 331.99 67.8028 331.99 68.6562C331.99 69.2748 331.915 69.8295 331.766 70.3202C331.617 70.8108 331.414 71.2695 331.158 71.6962C330.902 72.1228 330.603 72.5282 330.262 72.9122C329.921 73.2748 329.558 73.6375 329.174 74.0002C328.811 74.3415 328.502 74.6508 328.246 74.9282C328.011 75.2055 327.819 75.4828 327.67 75.7602C327.542 76.0162 327.446 76.2935 327.382 76.5922C327.318 76.8908 327.286 77.2322 327.286 77.6162V78.1282H323.094ZM325.142 86.1922C324.374 86.1922 323.723 85.9255 323.19 85.3922C322.657 84.8375 322.39 84.1762 322.39 83.4082C322.39 82.6402 322.657 81.9895 323.19 81.4562C323.723 80.9228 324.374 80.6562 325.142 80.6562C325.91 80.6562 326.561 80.9228 327.094 81.4562C327.649 81.9895 327.926 82.6402 327.926 83.4082C327.926 84.1762 327.649 84.8375 327.094 85.3922C326.561 85.9255 325.91 86.1922 325.142 86.1922Z" fill="#F3EFF5" />
    <path d="M339.532 78.1282V77.0722C339.532 76.5602 339.585 76.0908 339.692 75.6642C339.798 75.2162 339.958 74.7895 340.172 74.3842C340.406 73.9788 340.705 73.5735 341.068 73.1682C341.452 72.7628 341.921 72.3255 342.476 71.8562C343.052 71.3442 343.5 70.8748 343.82 70.4482C344.14 70.0215 344.3 69.4988 344.3 68.8802C344.3 68.2402 344.054 67.6748 343.564 67.1842C343.094 66.6935 342.444 66.4482 341.612 66.4482C341.164 66.4482 340.758 66.5228 340.396 66.6722C340.033 66.8215 339.713 67.0242 339.436 67.2802C339.158 67.5362 338.924 67.8242 338.732 68.1442C338.561 68.4642 338.433 68.7948 338.348 69.1362L334.668 67.6002C334.838 67.0028 335.105 66.4055 335.468 65.8082C335.852 65.2108 336.321 64.6775 336.876 64.2082C337.452 63.7175 338.124 63.3228 338.892 63.0242C339.66 62.7255 340.524 62.5762 341.484 62.5762C342.508 62.5762 343.446 62.7362 344.3 63.0562C345.153 63.3548 345.878 63.7815 346.476 64.3362C347.094 64.8695 347.574 65.5095 347.916 66.2562C348.257 67.0028 348.428 67.8028 348.428 68.6562C348.428 69.2748 348.353 69.8295 348.204 70.3202C348.054 70.8108 347.852 71.2695 347.596 71.6962C347.34 72.1228 347.041 72.5282 346.7 72.9122C346.358 73.2748 345.996 73.6375 345.612 74.0002C345.249 74.3415 344.94 74.6508 344.684 74.9282C344.449 75.2055 344.257 75.4828 344.108 75.7602C343.98 76.0162 343.884 76.2935 343.82 76.5922C343.756 76.8908 343.724 77.2322 343.724 77.6162V78.1282H339.532ZM341.58 86.1922C340.812 86.1922 340.161 85.9255 339.628 85.3922C339.094 84.8375 338.828 84.1762 338.828 83.4082C338.828 82.6402 339.094 81.9895 339.628 81.4562C340.161 80.9228 340.812 80.6562 341.58 80.6562C342.348 80.6562 342.998 80.9228 343.532 81.4562C344.086 81.9895 344.364 82.6402 344.364 83.4082C344.364 84.1762 344.086 84.8375 343.532 85.3922C342.998 85.9255 342.348 86.1922 341.58 86.1922Z" fill="#F3EFF5" />
    <path d="M354.273 86.1922C353.505 86.1922 352.844 85.9255 352.289 85.3922C351.756 84.8375 351.489 84.1762 351.489 83.4082C351.489 82.6402 351.756 81.9895 352.289 81.4562C352.844 80.9228 353.505 80.6562 354.273 80.6562C355.041 80.6562 355.692 80.9228 356.225 81.4562C356.758 81.9895 357.025 82.6402 357.025 83.4082C357.025 84.1762 356.758 84.8375 356.225 85.3922C355.692 85.9255 355.041 86.1922 354.273 86.1922ZM352.097 69.6802V63.0882H356.417V69.6802L355.969 78.1282H352.545L352.097 69.6802Z" fill="#F3EFF5" />
</svg>
