<svg width="408" height="174" viewBox="0 0 408 174" fill="none" xmlns="http://www.w3.org/2000/svg">
    <path d="M0 25.6C0 16.6392 0 12.1587 1.7439 8.73615C3.27787 5.72556 5.72556 3.27787 8.73615 1.7439C12.1587 0 16.6392 0 25.6 0H382.4C391.361 0 395.841 0 399.264 1.7439C402.274 3.27787 404.722 5.72556 406.256 8.73615C408 12.1587 408 16.6392 408 25.6V167.439C408 169.544 408 170.596 407.567 171.142C407.191 171.617 406.62 171.895 406.014 171.899C405.318 171.904 404.488 171.257 402.83 169.961L382.946 154.427C380.371 152.414 379.083 151.408 377.655 150.693C376.388 150.059 375.042 149.596 373.653 149.316C372.088 149 370.454 149 367.186 149H25.6C16.6392 149 12.1587 149 8.73615 147.256C5.72556 145.722 3.27787 143.274 1.7439 140.264C0 136.841 0 132.361 0 123.4V25.6Z" fill="#23124E" />
    <path d="M58.8516 82.3202C57.7209 83.6855 56.3876 84.7308 54.8516 85.4562C53.3156 86.1602 51.5983 86.5122 49.6996 86.5122C47.9929 86.5122 46.4036 86.2028 44.9316 85.5842C43.4809 84.9655 42.2223 84.1228 41.1556 83.0562C40.0889 81.9895 39.2463 80.7308 38.6276 79.2802C38.0089 77.8082 37.6996 76.2295 37.6996 74.5442C37.6996 72.8588 38.0089 71.2908 38.6276 69.8402C39.2463 68.3682 40.0889 67.0988 41.1556 66.0322C42.2223 64.9655 43.4809 64.1228 44.9316 63.5042C46.4036 62.8855 47.9929 62.5762 49.6996 62.5762C51.5343 62.5762 53.1449 62.8962 54.5316 63.5362C55.9396 64.1762 57.1876 65.1042 58.2756 66.3202L55.2356 69.2642C54.5529 68.4748 53.7636 67.8455 52.8676 67.3762C51.9929 66.9068 50.9476 66.6722 49.7316 66.6722C48.6649 66.6722 47.6623 66.8642 46.7236 67.2482C45.7849 67.6108 44.9636 68.1335 44.2596 68.8162C43.5769 69.4988 43.0329 70.3308 42.6276 71.3122C42.2223 72.2722 42.0196 73.3495 42.0196 74.5442C42.0196 75.7388 42.2223 76.8268 42.6276 77.8082C43.0329 78.7682 43.5769 79.5895 44.2596 80.2722C44.9636 80.9548 45.7849 81.4882 46.7236 81.8722C47.6623 82.2348 48.6649 82.4162 49.7316 82.4162C51.0116 82.4162 52.1423 82.1602 53.1236 81.6482C54.1263 81.1148 55.0116 80.3682 55.7796 79.4082L58.8516 82.3202Z" fill="#F3EFF5" />
    <path d="M62.6226 86.2562C62.2813 86.2562 61.9399 86.2348 61.5986 86.1922C61.2573 86.1495 60.9693 86.0855 60.7346 86.0002V82.3202C60.9479 82.3842 61.1293 82.4268 61.2786 82.4482C61.4493 82.4695 61.6093 82.4802 61.7586 82.4802C62.0786 82.4802 62.3559 82.4055 62.5906 82.2562C62.8253 82.0855 63.0066 81.8188 63.1346 81.4562C63.2839 81.0722 63.3906 80.5815 63.4546 79.9842C63.5399 79.3655 63.5826 78.5975 63.5826 77.6802V70.3202H77.5986V86.0002H73.5986V74.0642H67.5186V78.6082C67.5186 80.0588 67.3906 81.2748 67.1346 82.2562C66.8999 83.2375 66.5586 84.0268 66.1106 84.6242C65.6839 85.2002 65.1719 85.6162 64.5746 85.8722C63.9773 86.1282 63.3266 86.2562 62.6226 86.2562Z" fill="#F3EFF5" />
    <path d="M97.0226 86.0002V70.3202H100.991V86.0002H97.0226ZM81.1826 86.0002V70.3202H85.1506V75.4082H89.2786C90.1106 75.4082 90.8786 75.5362 91.5826 75.7922C92.3079 76.0268 92.9266 76.3682 93.4386 76.8162C93.9719 77.2642 94.3879 77.8188 94.6866 78.4802C95.0066 79.1202 95.1666 79.8562 95.1666 80.6882C95.1666 81.5202 95.0066 82.2668 94.6866 82.9282C94.3879 83.5682 93.9719 84.1228 93.4386 84.5922C92.9266 85.0402 92.3079 85.3922 91.5826 85.6482C90.8786 85.8828 90.1106 86.0002 89.2786 86.0002H81.1826ZM89.1186 82.7042C89.7373 82.7042 90.2599 82.5335 90.6866 82.1922C91.1133 81.8295 91.3266 81.3282 91.3266 80.6882C91.3266 80.0695 91.1133 79.5788 90.6866 79.2162C90.2599 78.8535 89.7373 78.6722 89.1186 78.6722H85.1506V82.7042H89.1186Z" fill="#F3EFF5" />
    <path d="M104.589 86.0002V70.3202H108.685V82.2562H113.261V70.3202H117.357V82.2562H121.965V70.3202H126.061V86.0002H104.589Z" fill="#F3EFF5" />
    <path d="M129.892 88.8482L131.78 85.9362C131.311 85.7655 130.906 85.4562 130.564 85.0082C130.244 84.5602 130.084 84.0268 130.084 83.4082C130.084 82.6402 130.351 81.9895 130.884 81.4562C131.439 80.9228 132.1 80.6562 132.868 80.6562C133.636 80.6562 134.287 80.9228 134.82 81.4562C135.354 81.9895 135.62 82.6402 135.62 83.4082C135.62 83.8135 135.556 84.1762 135.428 84.4962C135.3 84.7948 135.098 85.1468 134.82 85.5522L131.78 90.0962L129.892 88.8482Z" fill="#F3EFF5" />
    <path d="M160.491 86.0002V79.6002L160.747 76.5282H160.491L156.651 83.9522H153.707L149.867 76.5282H149.611L149.867 79.6002V86.0002H145.867V70.3202H150.859L155.051 78.5442H155.307L159.499 70.3202H164.491V86.0002H160.491Z" fill="#F3EFF5" />
    <path d="M182.624 82.2242C181.899 83.5042 180.918 84.5388 179.68 85.3282C178.464 86.1175 176.971 86.5122 175.2 86.5122C174.006 86.5122 172.896 86.3095 171.872 85.9042C170.87 85.4775 169.995 84.8908 169.248 84.1442C168.502 83.3975 167.915 82.5228 167.488 81.5202C167.083 80.4962 166.88 79.3762 166.88 78.1602C166.88 77.0295 167.083 75.9628 167.488 74.9602C167.894 73.9362 168.459 73.0508 169.184 72.3042C169.91 71.5362 170.763 70.9282 171.744 70.4802C172.747 70.0322 173.846 69.8082 175.04 69.8082C176.299 69.8082 177.419 70.0215 178.4 70.4482C179.382 70.8535 180.203 71.4295 180.864 72.1762C181.526 72.9015 182.027 73.7655 182.368 74.7682C182.71 75.7708 182.88 76.8588 182.88 78.0322C182.88 78.1815 182.88 78.3095 182.88 78.4162C182.859 78.5442 182.848 78.6615 182.848 78.7682C182.827 78.8748 182.816 78.9922 182.816 79.1202H171.008C171.094 79.7602 171.264 80.3148 171.52 80.7842C171.798 81.2322 172.128 81.6162 172.512 81.9362C172.918 82.2348 173.355 82.4588 173.824 82.6082C174.294 82.7362 174.774 82.8002 175.264 82.8002C176.224 82.8002 177.014 82.5868 177.632 82.1602C178.272 81.7122 178.774 81.1575 179.136 80.4962L182.624 82.2242ZM178.816 76.1442C178.795 75.8668 178.699 75.5575 178.528 75.2162C178.379 74.8748 178.144 74.5548 177.824 74.2562C177.526 73.9575 177.142 73.7122 176.672 73.5202C176.224 73.3282 175.68 73.2322 175.04 73.2322C174.144 73.2322 173.355 73.4882 172.672 74.0002C171.99 74.5122 171.51 75.2268 171.232 76.1442H178.816Z" fill="#F3EFF5" />
    <path d="M194.002 86.3842C192.679 86.2348 191.474 85.9468 190.386 85.5202C189.298 85.0935 188.359 84.5282 187.57 83.8242C186.781 83.1202 186.173 82.2988 185.746 81.3602C185.319 80.4002 185.106 79.3335 185.106 78.1602C185.106 77.0082 185.319 75.9628 185.746 75.0242C186.173 74.0642 186.781 73.2322 187.57 72.5282C188.359 71.8242 189.298 71.2588 190.386 70.8322C191.474 70.3842 192.679 70.0855 194.002 69.9362V63.0882H198.194V69.9362C199.516 70.1068 200.722 70.4162 201.81 70.8642C202.898 71.2908 203.837 71.8562 204.626 72.5602C205.415 73.2428 206.023 74.0642 206.45 75.0242C206.876 75.9628 207.09 77.0082 207.09 78.1602C207.09 79.3335 206.876 80.4002 206.45 81.3602C206.023 82.2988 205.415 83.1202 204.626 83.8242C203.837 84.5068 202.898 85.0722 201.81 85.5202C200.722 85.9468 199.516 86.2348 198.194 86.3842V92.9122H194.002V86.3842ZM189.17 78.1602C189.17 79.3975 189.586 80.4108 190.418 81.2002C191.271 81.9682 192.466 82.4695 194.002 82.7042V73.6162C192.466 73.8508 191.271 74.3628 190.418 75.1522C189.586 75.9202 189.17 76.9228 189.17 78.1602ZM203.026 78.1602C203.026 76.9228 202.599 75.9202 201.746 75.1522C200.914 74.3628 199.73 73.8508 198.194 73.6162V82.7042C199.73 82.4695 200.914 81.9682 201.746 81.2002C202.599 80.4108 203.026 79.3975 203.026 78.1602Z" fill="#F3EFF5" />
    <path d="M224.906 82.2242C224.18 83.5042 223.199 84.5388 221.962 85.3282C220.746 86.1175 219.252 86.5122 217.482 86.5122C216.287 86.5122 215.178 86.3095 214.154 85.9042C213.151 85.4775 212.276 84.8908 211.53 84.1442C210.783 83.3975 210.196 82.5228 209.77 81.5202C209.364 80.4962 209.162 79.3762 209.162 78.1602C209.162 77.0295 209.364 75.9628 209.77 74.9602C210.175 73.9362 210.74 73.0508 211.466 72.3042C212.191 71.5362 213.044 70.9282 214.026 70.4802C215.028 70.0322 216.127 69.8082 217.322 69.8082C218.58 69.8082 219.7 70.0215 220.682 70.4482C221.663 70.8535 222.484 71.4295 223.146 72.1762C223.807 72.9015 224.308 73.7655 224.65 74.7682C224.991 75.7708 225.162 76.8588 225.162 78.0322C225.162 78.1815 225.162 78.3095 225.162 78.4162C225.14 78.5442 225.13 78.6615 225.13 78.7682C225.108 78.8748 225.098 78.9922 225.098 79.1202H213.29C213.375 79.7602 213.546 80.3148 213.802 80.7842C214.079 81.2322 214.41 81.6162 214.794 81.9362C215.199 82.2348 215.636 82.4588 216.106 82.6082C216.575 82.7362 217.055 82.8002 217.546 82.8002C218.506 82.8002 219.295 82.5868 219.914 82.1602C220.554 81.7122 221.055 81.1575 221.418 80.4962L224.906 82.2242ZM221.098 76.1442C221.076 75.8668 220.98 75.5575 220.81 75.2162C220.66 74.8748 220.426 74.5548 220.106 74.2562C219.807 73.9575 219.423 73.7122 218.954 73.5202C218.506 73.3282 217.962 73.2322 217.322 73.2322C216.426 73.2322 215.636 73.4882 214.954 74.0002C214.271 74.5122 213.791 75.2268 213.514 76.1442H221.098Z" fill="#F3EFF5" />
    <path d="M226.943 90.8642V82.3202H228.959C229.151 81.9788 229.322 81.5628 229.471 81.0722C229.642 80.5602 229.791 80.0055 229.919 79.4082C230.047 78.7895 230.143 78.1495 230.207 77.4882C230.271 76.8055 230.303 76.1442 230.303 75.5042V70.3202H243.743V82.3202H246.143V90.8642H242.399V86.0002H230.687V90.8642H226.943ZM234.271 75.8562C234.271 77.0082 234.175 78.1388 233.983 79.2482C233.791 80.3575 233.514 81.3815 233.151 82.3202H239.743V74.0002H234.271V75.8562Z" fill="#F3EFF5" />
    <path d="M248.711 70.3202H252.647V72.2082H252.903C253.287 71.5468 253.884 70.9815 254.695 70.5122C255.506 70.0428 256.508 69.8082 257.703 69.8082C258.706 69.8082 259.655 70.0215 260.551 70.4482C261.468 70.8535 262.268 71.4295 262.951 72.1762C263.655 72.9015 264.21 73.7762 264.615 74.8002C265.02 75.8242 265.223 76.9442 265.223 78.1602C265.223 79.3762 265.02 80.4962 264.615 81.5202C264.21 82.5442 263.655 83.4295 262.951 84.1762C262.268 84.9015 261.468 85.4775 260.551 85.9042C259.655 86.3095 258.706 86.5122 257.703 86.5122C256.508 86.5122 255.506 86.2775 254.695 85.8082C253.884 85.3388 253.287 84.7735 252.903 84.1122H252.647L252.903 86.3522V92.9122H248.711V70.3202ZM256.839 82.6402C257.394 82.6402 257.916 82.5335 258.407 82.3202C258.919 82.1068 259.367 81.8082 259.751 81.4242C260.135 81.0402 260.444 80.5708 260.679 80.0162C260.913 79.4615 261.031 78.8428 261.031 78.1602C261.031 77.4775 260.913 76.8588 260.679 76.3042C260.444 75.7495 260.135 75.2802 259.751 74.8962C259.367 74.5122 258.919 74.2135 258.407 74.0002C257.916 73.7868 257.394 73.6802 256.839 73.6802C256.284 73.6802 255.751 73.7868 255.239 74.0002C254.748 74.1922 254.311 74.4802 253.927 74.8642C253.543 75.2482 253.234 75.7175 252.999 76.2722C252.764 76.8268 252.647 77.4562 252.647 78.1602C252.647 78.8642 252.764 79.4935 252.999 80.0482C253.234 80.6028 253.543 81.0722 253.927 81.4562C254.311 81.8402 254.748 82.1388 255.239 82.3522C255.751 82.5442 256.284 82.6402 256.839 82.6402Z" fill="#F3EFF5" />
    <path d="M275.325 69.8082C276.541 69.8082 277.651 70.0215 278.653 70.4482C279.677 70.8535 280.552 71.4295 281.277 72.1762C282.024 72.9015 282.6 73.7762 283.005 74.8002C283.432 75.8242 283.645 76.9442 283.645 78.1602C283.645 79.3762 283.432 80.4962 283.005 81.5202C282.6 82.5442 282.024 83.4295 281.277 84.1762C280.552 84.9015 279.677 85.4775 278.653 85.9042C277.651 86.3095 276.541 86.5122 275.325 86.5122C274.109 86.5122 272.989 86.3095 271.965 85.9042C270.963 85.4775 270.088 84.9015 269.341 84.1762C268.616 83.4295 268.04 82.5442 267.613 81.5202C267.208 80.4962 267.005 79.3762 267.005 78.1602C267.005 76.9442 267.208 75.8242 267.613 74.8002C268.04 73.7762 268.616 72.9015 269.341 72.1762C270.088 71.4295 270.963 70.8535 271.965 70.4482C272.989 70.0215 274.109 69.8082 275.325 69.8082ZM275.325 82.6402C275.859 82.6402 276.371 82.5442 276.861 82.3522C277.373 82.1388 277.821 81.8402 278.205 81.4562C278.589 81.0722 278.888 80.6028 279.101 80.0482C279.336 79.4935 279.453 78.8642 279.453 78.1602C279.453 77.4562 279.336 76.8268 279.101 76.2722C278.888 75.7175 278.589 75.2482 278.205 74.8642C277.821 74.4802 277.373 74.1922 276.861 74.0002C276.371 73.7868 275.859 73.6802 275.325 73.6802C274.771 73.6802 274.248 73.7868 273.757 74.0002C273.267 74.1922 272.829 74.4802 272.445 74.8642C272.061 75.2482 271.752 75.7175 271.517 76.2722C271.304 76.8268 271.197 77.4562 271.197 78.1602C271.197 78.8642 271.304 79.4935 271.517 80.0482C271.752 80.6028 272.061 81.0722 272.445 81.4562C272.829 81.8402 273.267 82.1388 273.757 82.3522C274.248 82.5442 274.771 82.6402 275.325 82.6402Z" fill="#F3EFF5" />
    <path d="M296.746 86.0002V79.9522H290.218V86.0002H286.026V70.3202H290.218V76.0802H296.746V70.3202H300.938V86.0002H296.746Z" fill="#F3EFF5" />
    <path d="M315.246 86.0002V79.9522H308.718V86.0002H304.526V70.3202H308.718V76.0802H315.246V70.3202H319.438V86.0002H315.246Z" fill="#F3EFF5" />
    <path d="M338.866 86.0002V70.3202H342.834V86.0002H338.866ZM323.026 86.0002V70.3202H326.994V75.4082H331.122C331.954 75.4082 332.722 75.5362 333.426 75.7922C334.152 76.0268 334.77 76.3682 335.282 76.8162C335.816 77.2642 336.232 77.8188 336.53 78.4802C336.85 79.1202 337.01 79.8562 337.01 80.6882C337.01 81.5202 336.85 82.2668 336.53 82.9282C336.232 83.5682 335.816 84.1228 335.282 84.5922C334.77 85.0402 334.152 85.3922 333.426 85.6482C332.722 85.8828 331.954 86.0002 331.122 86.0002H323.026ZM330.962 82.7042C331.581 82.7042 332.104 82.5335 332.53 82.1922C332.957 81.8295 333.17 81.3282 333.17 80.6882C333.17 80.0695 332.957 79.5788 332.53 79.2162C332.104 78.8535 331.581 78.6722 330.962 78.6722H326.994V82.7042H330.962Z" fill="#F3EFF5" />
    <path d="M361.089 86.0002H356.897V79.6322L357.153 76.5602H356.897L350.625 86.0002H346.433V70.3202H350.625V76.6882L350.369 79.7602H350.625L356.897 70.3202H361.089V86.0002ZM354.017 67.9522C353.441 67.9522 352.886 67.8455 352.353 67.6322C351.819 67.4188 351.35 67.1202 350.945 66.7362C350.561 66.3522 350.241 65.8935 349.985 65.3602C349.75 64.8268 349.633 64.2402 349.633 63.6002H352.609C352.609 63.9842 352.726 64.3255 352.961 64.6242C353.217 64.9228 353.569 65.0722 354.017 65.0722C354.443 65.0722 354.774 64.9228 355.009 64.6242C355.265 64.3255 355.393 63.9842 355.393 63.6002H358.337C358.337 64.2402 358.219 64.8268 357.985 65.3602C357.75 65.8935 357.43 66.3522 357.025 66.7362C356.641 67.1202 356.182 67.4188 355.649 67.6322C355.137 67.8455 354.593 67.9522 354.017 67.9522Z" fill="#F3EFF5" />
    <path d="M367.211 86.1922C366.443 86.1922 365.781 85.9255 365.227 85.3922C364.693 84.8375 364.427 84.1762 364.427 83.4082C364.427 82.6402 364.693 81.9895 365.227 81.4562C365.781 80.9228 366.443 80.6562 367.211 80.6562C367.979 80.6562 368.629 80.9228 369.163 81.4562C369.696 81.9895 369.963 82.6402 369.963 83.4082C369.963 84.1762 369.696 84.8375 369.163 85.3922C368.629 85.9255 367.979 86.1922 367.211 86.1922ZM365.035 69.6802V63.0882H369.355V69.6802L368.907 78.1282H365.483L365.035 69.6802Z" fill="#F3EFF5" />
</svg>
