<svg width="48" height="48" viewBox="0 0 48 48" fill="none" xmlns="http://www.w3.org/2000/svg">
    <path d="M8 40.0002V26.0002H22L15.566 32.4402C17.7859 34.7102 20.8249 35.993 24 36.0002C29.0789 35.9927 33.603 32.7886 35.296 28.0002H35.332C35.5611 27.3494 35.7344 26.6803 35.85 26.0002H39.874C38.8661 34 32.063 39.9999 24 40.0002H23.98C19.7375 40.0128 15.6663 38.3276 12.674 35.3202L8 40.0002ZM12.148 22.0002H8.124C9.1315 14.0034 15.93 8.00445 23.99 8.00008H24C28.2433 7.9865 32.3154 9.67184 35.308 12.6802L40 8.00008V22.0002H26L32.444 15.5602C30.2218 13.2875 27.1786 12.0044 24 12.0002C18.9211 12.0077 14.397 15.2117 12.704 20.0002H12.668C12.4371 20.6504 12.2638 21.3196 12.15 22.0002H12.148Z" fill="#F3EFF5" />
</svg>
