<svg width="408" height="174" viewBox="0 0 408 174" fill="none" xmlns="http://www.w3.org/2000/svg">
    <path d="M0 25.6C0 16.6392 0 12.1587 1.7439 8.73615C3.27787 5.72556 5.72556 3.27787 8.73615 1.7439C12.1587 0 16.6392 0 25.6 0H382.4C391.361 0 395.841 0 399.264 1.7439C402.274 3.27787 404.722 5.72556 406.256 8.73615C408 12.1587 408 16.6392 408 25.6V167.439C408 169.544 408 170.596 407.567 171.142C407.191 171.617 406.62 171.895 406.014 171.899C405.318 171.904 404.488 171.257 402.83 169.961L382.946 154.427C380.371 152.414 379.083 151.408 377.655 150.693C376.388 150.059 375.042 149.596 373.653 149.316C372.088 149 370.454 149 367.186 149H25.6C16.6392 149 12.1587 149 8.73615 147.256C5.72556 145.722 3.27787 143.274 1.7439 140.264C0 136.841 0 132.361 0 123.4V25.6Z" fill="#23124E" />
    <path d="M189.11 48.4482H221.798V57.6642H198.83V70.1922H219.494V79.4082H198.83V100H189.11V48.4482Z" fill="#F3EFF5" />
</svg>
