<svg width="408" height="174" viewBox="0 0 408 174" fill="none" xmlns="http://www.w3.org/2000/svg">
    <path d="M0 25.6C0 16.6392 0 12.1587 1.7439 8.73615C3.27787 5.72556 5.72556 3.27787 8.73615 1.7439C12.1587 0 16.6392 0 25.6 0H382.4C391.361 0 395.841 0 399.264 1.7439C402.274 3.27787 404.722 5.72556 406.256 8.73615C408 12.1587 408 16.6392 408 25.6V167.439C408 169.544 408 170.596 407.567 171.142C407.191 171.617 406.62 171.895 406.014 171.899C405.318 171.904 404.488 171.257 402.83 169.961L382.946 154.427C380.371 152.414 379.083 151.408 377.655 150.693C376.388 150.059 375.042 149.596 373.653 149.316C372.088 149 370.454 149 367.186 149H25.6C16.6392 149 12.1587 149 8.73615 147.256C5.72556 145.722 3.27787 143.274 1.7439 140.264C0 136.841 0 132.361 0 123.4V25.6Z" fill="#23124E" />
    <path d="M89.4176 47.5122C87.711 47.5122 86.1216 47.2028 84.6496 46.5842C83.199 45.9655 81.9403 45.1228 80.8736 44.0562C79.8069 42.9682 78.9643 41.6988 78.3456 40.2482C77.7483 38.7762 77.4496 37.2082 77.4496 35.5442C77.4496 33.8802 77.7483 32.3228 78.3456 30.8722C78.9643 29.4002 79.8069 28.1308 80.8736 27.0642C81.9403 25.9762 83.199 25.1228 84.6496 24.5042C86.1216 23.8855 87.711 23.5762 89.4176 23.5762C91.1243 23.5762 92.7029 23.8855 94.1536 24.5042C95.6256 25.1228 96.895 25.9762 97.9616 27.0642C99.0283 28.1308 99.8603 29.4002 100.458 30.8722C101.076 32.3228 101.386 33.8802 101.386 35.5442C101.386 37.2082 101.076 38.7762 100.458 40.2482C99.8603 41.6988 99.0283 42.9682 97.9616 44.0562C96.895 45.1228 95.6256 45.9655 94.1536 46.5842C92.7029 47.2028 91.1243 47.5122 89.4176 47.5122ZM89.4176 43.4162C90.4843 43.4162 91.4763 43.2242 92.3936 42.8402C93.3323 42.4562 94.143 41.9228 94.8256 41.2402C95.5296 40.5575 96.0736 39.7362 96.4576 38.7762C96.863 37.7948 97.0656 36.7175 97.0656 35.5442C97.0656 34.3708 96.863 33.3042 96.4576 32.3442C96.0736 31.3628 95.5296 30.5308 94.8256 29.8482C94.143 29.1655 93.3323 28.6322 92.3936 28.2482C91.4763 27.8642 90.4843 27.6722 89.4176 27.6722C88.351 27.6722 87.3483 27.8642 86.4096 28.2482C85.4923 28.6322 84.6816 29.1655 83.9776 29.8482C83.295 30.5308 82.7509 31.3628 82.3456 32.3442C81.9616 33.3042 81.7696 34.3708 81.7696 35.5442C81.7696 36.7175 81.9616 37.7948 82.3456 38.7762C82.7509 39.7362 83.295 40.5575 83.9776 41.2402C84.6816 41.9228 85.4923 42.4562 86.4096 42.8402C87.3483 43.2242 88.351 43.4162 89.4176 43.4162Z" fill="#F3EFF5" />
    <path d="M102.412 51.8642V43.3202H104.428C104.62 42.9788 104.79 42.5628 104.94 42.0722C105.11 41.5602 105.26 41.0055 105.388 40.4082C105.516 39.7895 105.612 39.1495 105.676 38.4882C105.74 37.8055 105.772 37.1442 105.772 36.5042V31.3202H119.212V43.3202H121.612V51.8642H117.868V47.0002H106.156V51.8642H102.412ZM109.74 36.8562C109.74 38.0082 109.644 39.1388 109.452 40.2482C109.26 41.3575 108.982 42.3815 108.62 43.3202H115.212V35.0002H109.74V36.8562Z" fill="#F3EFF5" />
    <path d="M135.028 47.0002V40.9522H128.5V47.0002H124.308V31.3202H128.5V37.0802H135.028V31.3202H139.22V47.0002H135.028Z" fill="#F3EFF5" />
    <path d="M150.075 30.8082C151.291 30.8082 152.401 31.0215 153.403 31.4482C154.427 31.8535 155.302 32.4295 156.027 33.1762C156.774 33.9015 157.35 34.7762 157.755 35.8002C158.182 36.8242 158.395 37.9442 158.395 39.1602C158.395 40.3762 158.182 41.4962 157.755 42.5202C157.35 43.5442 156.774 44.4295 156.027 45.1762C155.302 45.9015 154.427 46.4775 153.403 46.9042C152.401 47.3095 151.291 47.5122 150.075 47.5122C148.859 47.5122 147.739 47.3095 146.715 46.9042C145.713 46.4775 144.838 45.9015 144.091 45.1762C143.366 44.4295 142.79 43.5442 142.363 42.5202C141.958 41.4962 141.755 40.3762 141.755 39.1602C141.755 37.9442 141.958 36.8242 142.363 35.8002C142.79 34.7762 143.366 33.9015 144.091 33.1762C144.838 32.4295 145.713 31.8535 146.715 31.4482C147.739 31.0215 148.859 30.8082 150.075 30.8082ZM150.075 43.6402C150.609 43.6402 151.121 43.5442 151.611 43.3522C152.123 43.1388 152.571 42.8402 152.955 42.4562C153.339 42.0722 153.638 41.6028 153.851 41.0482C154.086 40.4935 154.203 39.8642 154.203 39.1602C154.203 38.4562 154.086 37.8268 153.851 37.2722C153.638 36.7175 153.339 36.2482 152.955 35.8642C152.571 35.4802 152.123 35.1922 151.611 35.0002C151.121 34.7868 150.609 34.6802 150.075 34.6802C149.521 34.6802 148.998 34.7868 148.507 35.0002C148.017 35.1922 147.579 35.4802 147.195 35.8642C146.811 36.2482 146.502 36.7175 146.267 37.2722C146.054 37.8268 145.947 38.4562 145.947 39.1602C145.947 39.8642 146.054 40.4935 146.267 41.0482C146.502 41.6028 146.811 42.0722 147.195 42.4562C147.579 42.8402 148.017 43.1388 148.507 43.3522C148.998 43.5442 149.521 43.6402 150.075 43.6402Z" fill="#F3EFF5" />
    <path d="M175.272 47.0002V40.6002L175.528 37.5282H175.272L171.432 44.9522H168.488L164.648 37.5282H164.392L164.648 40.6002V47.0002H160.648V31.3202H165.64L169.832 39.5442H170.088L174.28 31.3202H179.272V47.0002H175.272Z" fill="#F3EFF5" />
    <path d="M189.982 30.8082C191.198 30.8082 192.307 31.0215 193.31 31.4482C194.334 31.8535 195.208 32.4295 195.934 33.1762C196.68 33.9015 197.256 34.7762 197.662 35.8002C198.088 36.8242 198.302 37.9442 198.302 39.1602C198.302 40.3762 198.088 41.4962 197.662 42.5202C197.256 43.5442 196.68 44.4295 195.934 45.1762C195.208 45.9015 194.334 46.4775 193.31 46.9042C192.307 47.3095 191.198 47.5122 189.982 47.5122C188.766 47.5122 187.646 47.3095 186.622 46.9042C185.619 46.4775 184.744 45.9015 183.998 45.1762C183.272 44.4295 182.696 43.5442 182.27 42.5202C181.864 41.4962 181.662 40.3762 181.662 39.1602C181.662 37.9442 181.864 36.8242 182.27 35.8002C182.696 34.7762 183.272 33.9015 183.998 33.1762C184.744 32.4295 185.619 31.8535 186.622 31.4482C187.646 31.0215 188.766 30.8082 189.982 30.8082ZM189.982 43.6402C190.515 43.6402 191.027 43.5442 191.518 43.3522C192.03 43.1388 192.478 42.8402 192.862 42.4562C193.246 42.0722 193.544 41.6028 193.758 41.0482C193.992 40.4935 194.11 39.8642 194.11 39.1602C194.11 38.4562 193.992 37.8268 193.758 37.2722C193.544 36.7175 193.246 36.2482 192.862 35.8642C192.478 35.4802 192.03 35.1922 191.518 35.0002C191.027 34.7868 190.515 34.6802 189.982 34.6802C189.427 34.6802 188.904 34.7868 188.414 35.0002C187.923 35.1922 187.486 35.4802 187.102 35.8642C186.718 36.2482 186.408 36.7175 186.174 37.2722C185.96 37.8268 185.854 38.4562 185.854 39.1602C185.854 39.8642 185.96 40.4935 186.174 41.0482C186.408 41.6028 186.718 42.0722 187.102 42.4562C187.486 42.8402 187.923 43.1388 188.414 43.3522C188.904 43.5442 189.427 43.6402 189.982 43.6402Z" fill="#F3EFF5" />
    <path d="M215.179 47.0002V40.6002L215.435 37.5282H215.179L211.339 44.9522H208.395L204.555 37.5282H204.299L204.555 40.6002V47.0002H200.555V31.3202H205.547L209.739 39.5442H209.995L214.187 31.3202H219.179V47.0002H215.179Z" fill="#F3EFF5" />
    <path d="M237.312 43.2242C236.587 44.5042 235.605 45.5388 234.368 46.3282C233.152 47.1175 231.659 47.5122 229.888 47.5122C228.693 47.5122 227.584 47.3095 226.56 46.9042C225.557 46.4775 224.683 45.8908 223.936 45.1442C223.189 44.3975 222.603 43.5228 222.176 42.5202C221.771 41.4962 221.568 40.3762 221.568 39.1602C221.568 38.0295 221.771 36.9628 222.176 35.9602C222.581 34.9362 223.147 34.0508 223.872 33.3042C224.597 32.5362 225.451 31.9282 226.432 31.4802C227.435 31.0322 228.533 30.8082 229.728 30.8082C230.987 30.8082 232.107 31.0215 233.088 31.4482C234.069 31.8535 234.891 32.4295 235.552 33.1762C236.213 33.9015 236.715 34.7655 237.056 35.7682C237.397 36.7708 237.568 37.8588 237.568 39.0322C237.568 39.1815 237.568 39.3095 237.568 39.4162C237.547 39.5442 237.536 39.6615 237.536 39.7682C237.515 39.8748 237.504 39.9922 237.504 40.1202H225.696C225.781 40.7602 225.952 41.3148 226.208 41.7842C226.485 42.2322 226.816 42.6162 227.2 42.9362C227.605 43.2348 228.043 43.4588 228.512 43.6082C228.981 43.7362 229.461 43.8002 229.952 43.8002C230.912 43.8002 231.701 43.5868 232.32 43.1602C232.96 42.7122 233.461 42.1575 233.824 41.4962L237.312 43.2242ZM233.504 37.1442C233.483 36.8668 233.387 36.5575 233.216 36.2162C233.067 35.8748 232.832 35.5548 232.512 35.2562C232.213 34.9575 231.829 34.7122 231.36 34.5202C230.912 34.3282 230.368 34.2322 229.728 34.2322C228.832 34.2322 228.043 34.4882 227.36 35.0002C226.677 35.5122 226.197 36.2268 225.92 37.1442H233.504Z" fill="#F3EFF5" />
    <path d="M250.965 47.0002V40.9522H244.437V47.0002H240.245V31.3202H244.437V37.0802H250.965V31.3202H255.157V47.0002H250.965Z" fill="#F3EFF5" />
    <path d="M257.721 31.3202H271.577V35.1922H266.745V47.0002H262.553V35.1922H257.721V31.3202Z" fill="#F3EFF5" />
    <path d="M284.09 47.0002V40.9522H277.562V47.0002H273.37V31.3202H277.562V37.0802H284.09V31.3202H288.282V47.0002H284.09Z" fill="#F3EFF5" />
    <path d="M307.71 47.0002V31.3202H311.678V47.0002H307.71ZM291.87 47.0002V31.3202H295.838V36.4082H299.966C300.798 36.4082 301.566 36.5362 302.27 36.7922C302.995 37.0268 303.614 37.3682 304.126 37.8162C304.659 38.2642 305.075 38.8188 305.374 39.4802C305.694 40.1202 305.854 40.8562 305.854 41.6882C305.854 42.5202 305.694 43.2668 305.374 43.9282C305.075 44.5682 304.659 45.1228 304.126 45.5922C303.614 46.0402 302.995 46.3922 302.27 46.6482C301.566 46.8828 300.798 47.0002 299.966 47.0002H291.87ZM299.806 43.7042C300.425 43.7042 300.947 43.5335 301.374 43.1922C301.801 42.8295 302.014 42.3282 302.014 41.6882C302.014 41.0695 301.801 40.5788 301.374 40.2162C300.947 39.8535 300.425 39.6722 299.806 39.6722H295.838V43.7042H299.806Z" fill="#F3EFF5" />
    <path d="M329.932 47.0002H325.74V40.6322L325.996 37.5602H325.74L319.468 47.0002H315.276V31.3202H319.468V37.6882L319.212 40.7602H319.468L325.74 31.3202H329.932V47.0002ZM322.86 28.9522C322.284 28.9522 321.73 28.8455 321.196 28.6322C320.663 28.4188 320.194 28.1202 319.788 27.7362C319.404 27.3522 319.084 26.8935 318.828 26.3602C318.594 25.8268 318.476 25.2402 318.476 24.6002H321.452C321.452 24.9842 321.57 25.3255 321.804 25.6242C322.06 25.9228 322.412 26.0722 322.86 26.0722C323.287 26.0722 323.618 25.9228 323.852 25.6242C324.108 25.3255 324.236 24.9842 324.236 24.6002H327.18C327.18 25.2402 327.063 25.8268 326.828 26.3602C326.594 26.8935 326.274 27.3522 325.868 27.7362C325.484 28.1202 325.026 28.4188 324.492 28.6322C323.98 28.8455 323.436 28.9522 322.86 28.9522Z" fill="#F3EFF5" />
    <path d="M53.4014 70.3202H67.8974V86.0002H63.7054V74.1922H57.5934V86.0002H53.4014V70.3202Z" fill="#F3EFF5" />
    <path d="M86.1511 86.0002H81.9591V79.6322L82.2151 76.5602H81.9591L75.6871 86.0002H71.4951V70.3202H75.6871V76.6882L75.4311 79.7602H75.6871L81.9591 70.3202H86.1511V86.0002Z" fill="#F3EFF5" />
    <path d="M88.8491 90.8642V82.3202H90.8651C91.0571 81.9788 91.2278 81.5628 91.3771 81.0722C91.5478 80.5602 91.6971 80.0055 91.8251 79.4082C91.9531 78.7895 92.0491 78.1495 92.1131 77.4882C92.1771 76.8055 92.2091 76.1442 92.2091 75.5042V70.3202H105.649V82.3202H108.049V90.8642H104.305V86.0002H92.5931V90.8642H88.8491ZM96.1771 75.8562C96.1771 77.0082 96.0811 78.1388 95.8891 79.2482C95.6971 80.3575 95.4198 81.3815 95.0571 82.3202H101.649V74.0002H96.1771V75.8562Z" fill="#F3EFF5" />
    <path d="M118.169 69.8082C119.385 69.8082 120.494 70.0215 121.497 70.4482C122.521 70.8535 123.396 71.4295 124.121 72.1762C124.868 72.9015 125.444 73.7762 125.849 74.8002C126.276 75.8242 126.489 76.9442 126.489 78.1602C126.489 79.3762 126.276 80.4962 125.849 81.5202C125.444 82.5442 124.868 83.4295 124.121 84.1762C123.396 84.9015 122.521 85.4775 121.497 85.9042C120.494 86.3095 119.385 86.5122 118.169 86.5122C116.953 86.5122 115.833 86.3095 114.809 85.9042C113.806 85.4775 112.932 84.9015 112.185 84.1762C111.46 83.4295 110.884 82.5442 110.457 81.5202C110.052 80.4962 109.849 79.3762 109.849 78.1602C109.849 76.9442 110.052 75.8242 110.457 74.8002C110.884 73.7762 111.46 72.9015 112.185 72.1762C112.932 71.4295 113.806 70.8535 114.809 70.4482C115.833 70.0215 116.953 69.8082 118.169 69.8082ZM118.169 82.6402C118.702 82.6402 119.214 82.5442 119.705 82.3522C120.217 82.1388 120.665 81.8402 121.049 81.4562C121.433 81.0722 121.732 80.6028 121.945 80.0482C122.18 79.4935 122.297 78.8642 122.297 78.1602C122.297 77.4562 122.18 76.8268 121.945 76.2722C121.732 75.7175 121.433 75.2482 121.049 74.8642C120.665 74.4802 120.217 74.1922 119.705 74.0002C119.214 73.7868 118.702 73.6802 118.169 73.6802C117.614 73.6802 117.092 73.7868 116.601 74.0002C116.11 74.1922 115.673 74.4802 115.289 74.8642C114.905 75.2482 114.596 75.7175 114.361 76.2722C114.148 76.8268 114.041 77.4562 114.041 78.1602C114.041 78.8642 114.148 79.4935 114.361 80.0482C114.596 80.6028 114.905 81.0722 115.289 81.4562C115.673 81.8402 116.11 82.1388 116.601 82.3522C117.092 82.5442 117.614 82.6402 118.169 82.6402Z" fill="#F3EFF5" />
    <path d="M128.898 70.3202H132.834V72.2082H133.09C133.474 71.5468 134.072 70.9815 134.882 70.5122C135.693 70.0428 136.696 69.8082 137.89 69.8082C138.893 69.8082 139.842 70.0215 140.738 70.4482C141.656 70.8535 142.456 71.4295 143.138 72.1762C143.842 72.9015 144.397 73.7762 144.802 74.8002C145.208 75.8242 145.41 76.9442 145.41 78.1602C145.41 79.3762 145.208 80.4962 144.802 81.5202C144.397 82.5442 143.842 83.4295 143.138 84.1762C142.456 84.9015 141.656 85.4775 140.738 85.9042C139.842 86.3095 138.893 86.5122 137.89 86.5122C136.696 86.5122 135.693 86.2775 134.882 85.8082C134.072 85.3388 133.474 84.7735 133.09 84.1122H132.834L133.09 86.3522V92.9122H128.898V70.3202ZM137.026 82.6402C137.581 82.6402 138.104 82.5335 138.594 82.3202C139.106 82.1068 139.554 81.8082 139.938 81.4242C140.322 81.0402 140.632 80.5708 140.866 80.0162C141.101 79.4615 141.218 78.8428 141.218 78.1602C141.218 77.4775 141.101 76.8588 140.866 76.3042C140.632 75.7495 140.322 75.2802 139.938 74.8962C139.554 74.5122 139.106 74.2135 138.594 74.0002C138.104 73.7868 137.581 73.6802 137.026 73.6802C136.472 73.6802 135.938 73.7868 135.426 74.0002C134.936 74.1922 134.498 74.4802 134.114 74.8642C133.73 75.2482 133.421 75.7175 133.186 76.2722C132.952 76.8268 132.834 77.4562 132.834 78.1602C132.834 78.8642 132.952 79.4935 133.186 80.0482C133.421 80.6028 133.73 81.0722 134.114 81.4562C134.498 81.8402 134.936 82.1388 135.426 82.3522C135.938 82.5442 136.472 82.6402 137.026 82.6402Z" fill="#F3EFF5" />
    <path d="M147.705 88.8482L149.593 85.9362C149.124 85.7655 148.718 85.4562 148.377 85.0082C148.057 84.5602 147.897 84.0268 147.897 83.4082C147.897 82.6402 148.164 81.9895 148.697 81.4562C149.252 80.9228 149.913 80.6562 150.681 80.6562C151.449 80.6562 152.1 80.9228 152.633 81.4562C153.166 81.9895 153.433 82.6402 153.433 83.4082C153.433 83.8135 153.369 84.1762 153.241 84.4962C153.113 84.7948 152.91 85.1468 152.633 85.5522L149.593 90.0962L147.705 88.8482Z" fill="#F3EFF5" />
    <path d="M185.719 82.0002C185.036 83.3228 184.076 84.4108 182.839 85.2642C181.623 86.0962 180.098 86.5122 178.263 86.5122C177.047 86.5122 175.927 86.3095 174.903 85.9042C173.9 85.4775 173.026 84.8908 172.279 84.1442C171.554 83.3975 170.978 82.5228 170.551 81.5202C170.146 80.4962 169.943 79.3762 169.943 78.1602C169.943 76.9442 170.146 75.8242 170.551 74.8002C170.978 73.7762 171.554 72.9015 172.279 72.1762C173.026 71.4295 173.9 70.8535 174.903 70.4482C175.927 70.0215 177.047 69.8082 178.263 69.8082C180.076 69.8082 181.602 70.2242 182.839 71.0562C184.076 71.8882 184.983 72.9655 185.559 74.2882L181.719 75.8882C181.356 75.1628 180.887 74.6188 180.311 74.2562C179.756 73.8722 179.052 73.6802 178.199 73.6802C177.644 73.6802 177.122 73.7868 176.631 74.0002C176.14 74.2135 175.703 74.5122 175.319 74.8962C174.956 75.2802 174.668 75.7495 174.455 76.3042C174.242 76.8588 174.135 77.4775 174.135 78.1602C174.135 78.8428 174.242 79.4615 174.455 80.0162C174.668 80.5708 174.956 81.0402 175.319 81.4242C175.703 81.8082 176.14 82.1068 176.631 82.3202C177.122 82.5335 177.644 82.6402 178.199 82.6402C179.074 82.6402 179.81 82.4482 180.407 82.0642C181.026 81.6588 181.516 81.0828 181.879 80.3362L185.719 82.0002Z" fill="#F3EFF5" />
    <path d="M188.276 70.3202H202.772V86.0002H198.58V74.1922H192.468V86.0002H188.276V70.3202Z" fill="#F3EFF5" />
    <path d="M221.026 86.0002H216.834V79.6322L217.09 76.5602H216.834L210.562 86.0002H206.37V70.3202H210.562V76.6882L210.306 79.7602H210.562L216.834 70.3202H221.026V86.0002Z" fill="#F3EFF5" />
    <path d="M230.796 69.8082C231.671 69.8082 232.481 69.9255 233.228 70.1602C233.996 70.3948 234.657 70.7255 235.212 71.1522C235.767 71.5575 236.204 72.0375 236.524 72.5922C236.844 73.1255 237.004 73.7122 237.004 74.3522C237.004 75.2482 236.833 75.9628 236.492 76.4962C236.151 77.0295 235.681 77.4455 235.084 77.7442V78.0002C235.873 78.3628 236.492 78.8642 236.94 79.5042C237.409 80.1228 237.644 80.8162 237.644 81.5842C237.644 83.1202 237.025 84.3255 235.788 85.2002C234.572 86.0748 232.887 86.5122 230.732 86.5122C229.303 86.5122 228.044 86.2562 226.956 85.7442C225.868 85.2322 224.919 84.5388 224.108 83.6642L226.7 81.0722C227.297 81.7122 227.916 82.2028 228.556 82.5442C229.217 82.8642 229.943 83.0242 230.732 83.0242C231.628 83.0242 232.332 82.8642 232.844 82.5442C233.377 82.2242 233.644 81.7975 233.644 81.2642C233.644 80.7735 233.42 80.3575 232.972 80.0162C232.545 79.6748 231.905 79.5042 231.052 79.5042H228.556V76.4962H231.02C231.681 76.4962 232.215 76.3468 232.62 76.0482C233.047 75.7495 233.26 75.3228 233.26 74.7682C233.26 74.2988 233.036 73.9148 232.588 73.6162C232.14 73.2962 231.543 73.1362 230.796 73.1362C230.049 73.1362 229.377 73.2642 228.78 73.5202C228.183 73.7762 227.639 74.1815 227.148 74.7362L224.652 72.3362C225.527 71.4615 226.444 70.8215 227.404 70.4162C228.385 70.0108 229.516 69.8082 230.796 69.8082Z" fill="#F3EFF5" />
    <path d="M239.38 90.8642V82.3202H241.396C241.588 81.9788 241.759 81.5628 241.908 81.0722C242.079 80.5602 242.228 80.0055 242.356 79.4082C242.484 78.7895 242.58 78.1495 242.644 77.4882C242.708 76.8055 242.74 76.1442 242.74 75.5042V70.3202H256.18V82.3202H258.58V90.8642H254.836V86.0002H243.124V90.8642H239.38ZM246.708 75.8562C246.708 77.0082 246.612 78.1388 246.42 79.2482C246.228 80.3575 245.951 81.3815 245.588 82.3202H252.18V74.0002H246.708V75.8562Z" fill="#F3EFF5" />
    <path d="M275.932 86.0002H271.74V79.6322L271.996 76.5602H271.74L265.468 86.0002H261.276V70.3202H265.468V76.6882L265.212 79.7602H265.468L271.74 70.3202H275.932V86.0002Z" fill="#F3EFF5" />
    <path d="M279.526 86.0002V70.3202H287.878C288.561 70.3202 289.201 70.4375 289.798 70.6722C290.417 70.8855 290.95 71.1842 291.398 71.5682C291.846 71.9522 292.198 72.4002 292.454 72.9122C292.732 73.4242 292.87 73.9682 292.87 74.5442C292.87 75.3762 292.678 76.0588 292.294 76.5922C291.932 77.1042 291.441 77.5095 290.822 77.8082V78.0642C291.59 78.4055 292.22 78.8748 292.71 79.4722C293.201 80.0695 293.446 80.7842 293.446 81.6162C293.446 82.3202 293.297 82.9495 292.998 83.5042C292.7 84.0375 292.305 84.4962 291.814 84.8802C291.324 85.2428 290.769 85.5202 290.15 85.7122C289.532 85.9042 288.913 86.0002 288.294 86.0002H279.526ZM283.494 79.4402V82.7042H287.814C288.305 82.7042 288.721 82.5548 289.062 82.2562C289.425 81.9575 289.606 81.5628 289.606 81.0722C289.606 80.6028 289.425 80.2188 289.062 79.9202C288.721 79.6002 288.305 79.4402 287.814 79.4402H283.494ZM283.494 73.4882V76.4642H287.206C287.633 76.4642 288.006 76.3255 288.326 76.0482C288.646 75.7708 288.806 75.4082 288.806 74.9602C288.806 74.5335 288.646 74.1815 288.326 73.9042C288.006 73.6268 287.633 73.4882 287.206 73.4882H283.494Z" fill="#F3EFF5" />
    <path d="M295.995 86.0002V70.3202H300.091V82.2562H304.667V70.3202H308.763V82.2562H313.371V70.3202H317.467V86.0002H295.995Z" fill="#F3EFF5" />
    <path d="M336.339 86.0002H332.147V79.6322L332.403 76.5602H332.147L325.875 86.0002H321.683V70.3202H325.875V76.6882L325.619 79.7602H325.875L332.147 70.3202H336.339V86.0002Z" fill="#F3EFF5" />
    <path d="M354.589 86.0002H350.397V79.6322L350.653 76.5602H350.397L344.125 86.0002H339.933V70.3202H344.125V76.6882L343.869 79.7602H344.125L350.397 70.3202H354.589V86.0002ZM347.517 67.9522C346.941 67.9522 346.386 67.8455 345.853 67.6322C345.319 67.4188 344.85 67.1202 344.445 66.7362C344.061 66.3522 343.741 65.8935 343.485 65.3602C343.25 64.8268 343.133 64.2402 343.133 63.6002H346.109C346.109 63.9842 346.226 64.3255 346.461 64.6242C346.717 64.9228 347.069 65.0722 347.517 65.0722C347.943 65.0722 348.274 64.9228 348.509 64.6242C348.765 64.3255 348.893 63.9842 348.893 63.6002H351.837C351.837 64.2402 351.719 64.8268 351.485 65.3602C351.25 65.8935 350.93 66.3522 350.525 66.7362C350.141 67.1202 349.682 67.4188 349.149 67.6322C348.637 67.8455 348.093 67.9522 347.517 67.9522Z" fill="#F3EFF5" />
    <path d="M161.37 125V109.32H169.722C170.405 109.32 171.045 109.438 171.642 109.672C172.261 109.886 172.794 110.184 173.242 110.568C173.69 110.952 174.042 111.4 174.298 111.912C174.575 112.424 174.714 112.968 174.714 113.544C174.714 114.376 174.522 115.059 174.138 115.592C173.775 116.104 173.285 116.51 172.666 116.808V117.064C173.434 117.406 174.063 117.875 174.554 118.472C175.045 119.07 175.29 119.784 175.29 120.616C175.29 121.32 175.141 121.95 174.842 122.504C174.543 123.038 174.149 123.496 173.658 123.88C173.167 124.243 172.613 124.52 171.994 124.712C171.375 124.904 170.757 125 170.138 125H161.37ZM165.338 118.44V121.704H169.658C170.149 121.704 170.565 121.555 170.906 121.256C171.269 120.958 171.45 120.563 171.45 120.072C171.45 119.603 171.269 119.219 170.906 118.92C170.565 118.6 170.149 118.44 169.658 118.44H165.338ZM165.338 112.488V115.464H169.05C169.477 115.464 169.85 115.326 170.17 115.048C170.49 114.771 170.65 114.408 170.65 113.96C170.65 113.534 170.49 113.182 170.17 112.904C169.85 112.627 169.477 112.488 169.05 112.488H165.338Z" fill="#F3EFF5" />
    <path d="M192.495 125H188.303V118.632L188.559 115.56H188.303L182.031 125H177.839V109.32H182.031V115.688L181.775 118.76H182.031L188.303 109.32H192.495V125Z" fill="#F3EFF5" />
    <path d="M197.216 125.256C196.875 125.256 196.534 125.235 196.192 125.192C195.851 125.15 195.563 125.086 195.328 125V121.32C195.542 121.384 195.723 121.427 195.872 121.448C196.043 121.47 196.203 121.48 196.352 121.48C196.672 121.48 196.95 121.406 197.184 121.256C197.419 121.086 197.6 120.819 197.728 120.456C197.878 120.072 197.984 119.582 198.048 118.984C198.134 118.366 198.176 117.598 198.176 116.68V109.32H212.192V125H208.192V113.064H202.112V117.608C202.112 119.059 201.984 120.275 201.728 121.256C201.494 122.238 201.152 123.027 200.704 123.624C200.278 124.2 199.766 124.616 199.168 124.872C198.571 125.128 197.92 125.256 197.216 125.256Z" fill="#F3EFF5" />
    <path d="M220.224 117.512H219.968V125H215.776V109.32H219.968V116.008H220.224L225.28 109.32H230.208V109.576L224.608 116.712L230.56 124.744V125H225.632L220.224 117.512Z" fill="#F3EFF5" />
    <path d="M237.454 124.232L230.862 109.32H235.63L239.598 118.824H239.822L243.63 109.32H248.302L238.478 131.912H233.966L237.454 124.232Z" fill="#F3EFF5" />
</svg>
